<svg aria-hidden="true" style="width:0;height:0;position:absolute;overflow:hidden" xmlns="http://www.w3.org/2000/svg"><defs><symbol id="icon-close" viewBox="0 0 32 32"><path stroke-linejoin="round" stroke-linecap="round" stroke-width="2.667" d="M24 8 8 24M8 8l16 16"/></symbol><symbol id="icon-Burger" viewBox="0 0 32 32"><path d="M4 5.333h24V8H4V5.333zm8 9.334h16v2.667H12v-2.667zM4 24h24v2.667H4V24z"/></symbol><symbol id="icon-instagram" viewBox="0 0 32 32"><path stroke-linejoin="round" stroke-linecap="round" stroke-width="2.286" d="M22.666 2.667H9.333a6.667 6.667 0 0 0-6.667 6.667v13.333a6.667 6.667 0 0 0 6.667 6.667h13.333a6.667 6.667 0 0 0 6.667-6.667V9.334a6.667 6.667 0 0 0-6.667-6.667z"/><path stroke-linejoin="round" stroke-linecap="round" stroke-width="2.286" d="M21.333 15.16a5.336 5.336 0 0 1-6.123 6.049 5.33 5.33 0 0 1-3.916-7.663 5.33 5.33 0 0 1 5.546-2.878 5.334 5.334 0 0 1 4.493 4.493zM23.334 8.667h.013"/></symbol><symbol id="icon-facebook" viewBox="0 0 32 32"><path stroke-linejoin="round" stroke-linecap="round" stroke-width="2.286" d="M24 2.667h-4a6.67 6.67 0 0 0-6.667 6.667v4h-4v5.333h4v10.667h5.333V18.667h4l1.333-5.333h-5.333v-4A1.333 1.333 0 0 1 19.999 8h4V2.667z"/></symbol><symbol id="icon-tel" viewBox="0 0 32 32"><path d="m29.276 6.061-3.873-3.869a2.5 2.5 0 0 0-3.55 0l-4.171 4.163a2.509 2.509 0 0 0 0 3.556l3.258 3.261a14.754 14.754 0 0 1-3.142 4.629 14.78 14.78 0 0 1-4.625 3.149l-3.258-3.261a2.5 2.5 0 0 0-1.775-.738 2.482 2.482 0 0 0-1.775.738L2.19 21.852a2.509 2.509 0 0 0 0 3.556l3.869 3.869a4.355 4.355 0 0 0 3.062 1.269c.236 0 .465-.018.698-.058 4.814-.793 9.593-3.356 13.451-7.21 3.855-3.861 6.415-8.639 7.215-13.456a4.335 4.335 0 0 0-1.211-3.76zm-1.367 3.327c-.709 4.287-3.015 8.563-6.487 12.035S13.676 27.2 9.389 27.909a1.711 1.711 0 0 1-1.484-.48l-3.8-3.8 4.029-4.032 4.389 4.396.785-.291A17.504 17.504 0 0 0 23.697 13.31l.291-.785-4.393-4.389 4.029-4.032 3.8 3.8a1.7 1.7 0 0 1 .484 1.483z"/></symbol><symbol id="icon-thanck-you" viewBox="0 0 58 32"><path fill="#f58b3d" style="fill:var(--color1,#f58b3d)" opacity=".505" d="M46.999 25.599c.539 3.691-12.54 6.099-23.798 4.419S6.778 21.776 12.151 18.28C17.523 14.784 46.46 21.908 47 25.599z"/><path fill="#f58b3d" style="fill:var(--color1,#f58b3d)" d="M30.819 10.218c.204-.142.519-.052.724.032.079.032.281.136.43.253a2.927 2.927 0 0 1-.048-.215l-.005-.029a8.047 8.047 0 0 1-.127-1l-.001-.025c-.005-.089.002-.189.009-.29l.007-.103a.054.054 0 0 1-.016-.034l-.002.015-.002.009-.007-.008-.006-.008c-.151-.207-.279-.441-.296-.697-.015-.218.181-.63.458-.345.124.127.092 1.022-.094 1.077.05.296.112.592.191.884a.123.123 0 0 1 .036-.001h-.001a2.28 2.28 0 0 1 .002-.179c.028-.235.242-.711.583-.619.262.071.101.364.012.492-.144.206-.306.296-.512.403-.004.044-.035.07-.072.078.138.472.319.932.556 1.367l.006-.028c.03-.132.065-.286.087-.318.116-.169.373-.376.61-.276.498.211-.042.815-.466.881a.203.203 0 0 1-.056.051c.095.152.182.277.275.399l-.01-.014c.163.216.311.399.465.578l-.013-.015c.005-.146.068-.471.086-.506.109-.212.422-.431.676-.28.286.17.027.491-.136.637-.067.06-.397.278-.514.279.384.44.808.872 1.24 1.289a6.845 6.845 0 0 1-.077-.757c.027-.294.238-.765.654-.651.404.111.225.6.087.833a1.251 1.251 0 0 1-.339.383c-.025.018-.058.032-.091.047a.4.4 0 0 0-.105.058c-.023.021-.03.044-.037.067a.122.122 0 0 1-.041.07c.21.202.438.416.667.628l.032.029c.096.089.205.186.314.282l.018.016c.061-.023.149.007.144.087a.079.079 0 0 1-.008.031v-.001l.257.215-.001-.032c0-.021.001-.041.004-.061v.002c-.062.081-.06-.037-.057-.127a.565.565 0 0 0-.001-.075c-.009-.058-.021-.115-.033-.172-.025-.122-.05-.243-.049-.369.003-.267.187-.715.576-.556.357.146.227.542.093.79a2.241 2.241 0 0 1-.324.431.965.965 0 0 0-.067.085l-.002.004c-.036.048-.071.095-.096.112.332.272.672.537 1.011.801l.455.356c.007-.026.012-.052.017-.076a.045.045 0 0 1-.033.014h-.006a2.734 2.734 0 0 0-.025-.108l.006.029c-.093-.39-.378-1.58.393-1.349.565.169.166 1.205-.255 1.567.305.24.552.443.794.649l-.037-.031c.189.161.358.316.522.476l-.002-.002c-.087-.211-.168-.485-.114-.702.078-.317.443-.616.799-.436.444.226.102.534-.218.823-.163.148-.322.29-.367.414.531.535.985 1.13 1.288 1.807.33.736.636 1.726.466 2.55.031-.362-.102-.817-.196-1.137.024.099.012.058 0 .017l-.035-.14a6.157 6.157 0 0 0-.621-1.458l.016.029c-.423-.723-.982-1.336-1.626-1.893-.147.047-.306.134-.438.205-.081.044-.152.083-.203.103-.247.097-.72.237-.878-.07-.155-.302.24-.471.484-.539a1.28 1.28 0 0 1 .67-.004 48.38 48.38 0 0 0-1.04-.814l-.193-.148a3.138 3.138 0 0 0-.291.266c-.331.325-.723.71-1.073.396-.528-.475.482-.958.912-.92a.873.873 0 0 1 .154.029c-.439-.341-.871-.69-1.28-1.062-.073.012-.19.111-.33.23-.315.267-.749.634-1.076.345-.236-.209-.155-.534.073-.72s.561-.186.843-.124c.122.027.234.079.339.142l.013.001c-.402-.371-.807-.75-1.196-1.142l-.021.006a.111.111 0 0 1-.099.03l-.061.019c-.309.098-.705.223-1.013.169-.226-.04-.432-.208-.24-.416.156-.169.579-.145.785-.105.101.02.21.076.32.133.046.024.093.048.138.069a.095.095 0 0 1 .055-.043h.001a14.877 14.877 0 0 1-1.085-1.227c-.101.014-.213.055-.328.097-.277.101-.575.209-.789-.024-.316-.344.278-.544.56-.512a1.3 1.3 0 0 1 .28.068 4.25 4.25 0 0 1-.548-1.087l-.009-.031-.004.002-.005.003.005-.003.004-.002a1.18 1.18 0 0 1-.029-.087l-.008-.031a.377.377 0 0 0-.049-.022l-.003-.001c.128.081-.413.12-.514.128-.224.016-.524.023-.688-.145-.138-.141-.13-.35.039-.468zm10.305 11.888a.906.906 0 0 1-.077.319c.033-.103.058-.209.077-.319z"/><path fill="#f1f447" style="fill:var(--color2,#f1f447)" opacity=".2" d="M20.656 2.592c-.148-.103-.379-.037-.529.024a1.546 1.546 0 0 0-.314.183c.014-.058.027-.117.039-.177.046-.244.078-.494.094-.741.004-.065-.001-.137-.006-.21l-.005-.063-.001-.011a.045.045 0 0 0 .012-.025l.001.011c0 .004.001.007.002.007l.005-.006.004-.005c.111-.15.204-.319.216-.504.011-.157-.132-.455-.334-.249-.091.092-.067.739.068.779-.044.26-.092.476-.151.687l.011-.048-.015-.001-.012.001.001-.048-.002-.085v.004c-.02-.17-.177-.514-.425-.447-.192.052-.074.263-.009.356.105.149.223.214.373.291.003.032.026.051.053.057a4.996 4.996 0 0 1-.406.989l-.005-.02a1.338 1.338 0 0 0-.064-.23c-.085-.122-.272-.272-.445-.199-.363.152.031.589.34.637a.137.137 0 0 0 .04.036h.001c-.07.109-.133.2-.2.288l.007-.01a8.29 8.29 0 0 1-.339.417l.009-.01a2.003 2.003 0 0 0-.062-.366c-.079-.153-.308-.311-.493-.202-.209.123-.02.355.099.46.049.043.29.201.375.202a15.87 15.87 0 0 1-.906.933c.026-.135.061-.507.057-.548-.019-.213-.173-.553-.477-.47-.295.08-.165.434-.064.603a.919.919 0 0 0 .247.277c.018.013.042.023.066.034.029.013.058.025.076.042.017.015.022.032.027.049s.011.035.03.05c-.151.144-.317.299-.485.452l-.026.023c-.07.064-.149.134-.229.203l-.014.012c-.045-.017-.109.005-.105.063a.086.086 0 0 0 .006.023l-.188.156.001-.024a.3.3 0 0 0-.003-.043v.002c.045.058.043-.027.042-.092 0-.023-.001-.043.001-.054a2.47 2.47 0 0 1 .024-.124 1.2 1.2 0 0 0 .036-.267c-.002-.193-.137-.517-.42-.402-.261.106-.166.392-.068.571.062.114.148.215.236.312a.754.754 0 0 1 .051.064.413.413 0 0 0 .07.081c-.169.139-.409.329-.652.516l-.087.064-.333.258a1.067 1.067 0 0 1-.011-.049l-.001-.007c.006.006.015.01.025.01h.004l.013-.057c.068-.282.277-1.143-.286-.976-.413.123-.122.871.186 1.133-.187.146-.372.295-.553.447a7.799 7.799 0 0 0-.382.345l.002-.002c.063-.153.123-.351.084-.508-.057-.229-.323-.445-.583-.315-.324.163-.075.386.159.595.119.107.235.21.268.299-.388.387-.72.817-.941 1.307-.241.533-.465 1.249-.342 1.844-.023-.262.075-.591.144-.822l.026-.089c.114-.394.265-.736.454-1.054l-.011.02c.309-.523.717-.966 1.188-1.37.107.034.224.097.32.149.059.032.111.06.148.074.18.07.526.171.641-.051.113-.219-.175-.341-.354-.389a.954.954 0 0 0-.489-.003c.249-.201.505-.395.76-.589l.141-.107c.065.048.137.118.213.192.241.235.527.513.783.286.386-.344-.351-.692-.666-.665a.607.607 0 0 0-.117.022l.004-.001c.321-.247.636-.499.935-.769.054.009.139.08.241.166.23.193.547.458.785.249.172-.151.114-.386-.053-.521s-.41-.135-.615-.089a.82.82 0 0 0-.248.103h-.009c.294-.268.589-.542.874-.826l.015.005c.017.019.046.026.072.022l.044.014c.225.071.515.161.739.122.165-.029.315-.151.176-.301-.114-.122-.422-.104-.573-.075a.957.957 0 0 0-.234.096c-.034.017-.067.035-.101.05a.065.065 0 0 0-.04-.031c.281-.285.549-.58.793-.887.074.01.155.04.239.07.203.073.42.151.576-.017.23-.249-.203-.393-.409-.37a.895.895 0 0 0-.204.05c.165-.232.303-.5.401-.786l.007-.022.003.001.004.002-.004-.002-.003-.002c.009-.029.019-.057.027-.086l.038-.017c-.094.059.301.087.375.092.163.012.382.016.502-.106.101-.102.095-.253-.028-.338zm-7.536 8.575c.007.08.028.152.071.212a1.062 1.062 0 0 1-.07-.204l-.001-.007z"/><path fill="#b45661" style="fill:var(--color3,#b45661)" opacity=".49" d="M36.709 16.63c.801-.038 1.792.39 1.878 1.187.062.579.043 1.156.139 1.735.077.462.239.906.461 1.326.213.405.655.749.77 1.182.073.276.032.663-.069.933-.123.328-.057.302.187.577.48.539.912 1.091 1.218 1.735.44.927.729 2.01.565 3.025-.021.129-.045.591-.239.623-.217.036-.115-.228-.104-.314.074-.545.139-1.021.05-1.575-.343-2.136-2.017-3.543-3.108-5.355-.06-.093-.186-.316-.275-.463-.139-.232-.279-.673-.467-.845-.354-.324-.029.327.04.451.087.157.183.324.273.462.409.639.866 1.336 1.288 1.994-1.827.381-3.114-1.629-3.604-2.95-.404-1.089-.887-3.634.995-3.727z"/><path fill="#e7502f" style="fill:var(--color4,#e7502f)" opacity=".49" d="M47.448 14.608c-1.339.097-2.199.906-2.599 2.037-.216.609-.24 1.236-.36 1.862-.18.942-.568 1.657-1.327 2.328a2.36 2.36 0 0 0-.531.65 2.776 2.776 0 0 0-.613.802c-.199.403-.256.886-.026 1.288.062.108.217.325.377.423-.6 1.168-.929 2.448-.892 3.726.023.771.064 1.543.112 2.314.013.207.087.549.197.201.101-.317-.026-.816-.038-1.147-.057-1.615-.106-3.084.621-4.593.076-.158.157-.315.241-.471l.014-.009.009.007.021-.031a.435.435 0 0 0 .065-.084c.064-.082.137-.178.138-.23v-.001c.45-.672.965-1.307 1.492-1.929-.004.005.571-.712.482-.316-.043.191-.466.554-.636.756-.378.45-.821 1.02-1.19 1.571-.05.026-.12.154-.17.25-.028.048-.054.097-.08.14 1.306.395 2.322-.401 3.015-1.326l.002-.003c.211-.256.427-.509.697-.712.45-.337.932-.397 1.463-.563 1.447-.453 2.063-2.169 2.258-3.443.221-1.437-.858-3.64-2.742-3.498z"/><path fill="#e7502f" style="fill:var(--color4,#e7502f)" opacity=".49" d="M44.802 10.585c-1.375 1.309-2.039 3.125-2.565 4.832-.587 1.907-.975 3.843-.99 5.825-.01 1.302-.048 2.613.035 3.913.029.462.08.925.16 1.382.007.038.186 1.058.357.82.097-.135-.184-1.059-.205-1.212-.119-.866-.147-1.739-.141-2.611.01-1.436-.037-2.866.122-4.297.024-.214.042-.438.098-.647.059-.222-.016-.125.176-.213.186-.086.417-.073.61-.181.767-.426 1.16-1.519 1.465-2.236.349-.82.562-1.695.731-2.559.112-.532.206-1.184.26-1.848l.004-.059c.016-.202.017-.414.06-.613.012-.054.071-.149.068-.196-.005-.101-.071-.16-.076-.244a4.762 4.762 0 0 0-.169.145zm-7.496 17.441c0 2.165 1.918 3.92 4.284 3.92s4.284-1.755 4.284-3.92z"/><path fill="#b45661" style="fill:var(--color3,#b45661)" opacity=".49" d="M44.527 24.594c1.06-.071 2.244.711 2.756 1.526.412.657.343 1.519.088 2.217-.171.467-.543 1.133-1.163 1.139-.777.008-.814-.87-.829-1.383-.02-.682-.114-1.277-.702-1.742a4.542 4.542 0 0 0-.208-.154l-.017-.011a5.132 5.132 0 0 1-.213-.155l.013.009-.031-.024c-.208-.16-.426-.328-.453-.591-.038-.382.197-.451.557-.38.012.002.043.013.086.028.184.064.576.2.501.037-.028-.061-.13-.11-.259-.146-.333-.033-.73-.072-.844-.049-1.232.247-1.712 1.809-1.839 2.801-.01.066-.022.177-.032.288l-.003.034h-.226c.016-.26.036-.519.084-.776.182-.983.749-2.426 1.995-2.586.046-.006.215-.007.42.004a.802.802 0 0 1 .318-.086h.002z"/><path fill="#b45661" style="fill:var(--color3,#b45661)" opacity=".25" d="M18.539 9.471c.247-.322.704-1.139 1.051-1.254.224-.074.158.692.161.838.011.565-.049 1.127-.124 1.687-.134 1.011-.571 1.911-1.171 2.771-.309.442-.671.89-1.172 1.167-.231.127-.509.148-.737.258-.265.127-.121.024-.241.277-.166.352-.219.805-.296 1.18-.353 1.722-1.208 10.823-1.059 12.574a.118.118 0 0 1-.235.003c-.063-1.005.48-7.963.755-10.238s.551-4.286.829-5.073c.337-.955.947-2.104 1.454-2.994.236-.414.492-.813.785-1.196z"/><path fill="#f1f447" style="fill:var(--color2,#f1f447)" opacity=".25" d="M20.369 20.631c.642-.431 1.337.382.756.814-.321.238-.657.154-.846-.045-.123.137-.237.28-.348.401-.311.341-.625.709-.925 1.088l-.033.043c-.631.801-1.171 1.648-1.736 2.479a52.452 52.452 0 0 0-1.616 2.486c-.428.713-.999 1.551-1.146 2.332.222-1.657 1.066-3.249 2.072-4.71.997-1.449 2.141-3.031 3.685-4.174-.157-.211-.161-.513.137-.713z"/><path fill="#b45661" style="fill:var(--color3,#b45661)" opacity=".25" d="M8.192 16.591c.359.064.946.807 1.242 1.091.352.337.671.695.972 1.071a17.839 17.839 0 0 1 1.719 2.566 22.643 22.643 0 0 1 1.913 4.556c.286.975.471 1.985.581 2.988.021.189.237 1.648-.075 1.687-.281.035-.194-1.108-.208-1.263-.153-1.754-.612-3.461-1.251-5.114-.139-.36-.268-.801-.491-1.125-.16-.233-.001-.152-.283-.24-.242-.076-.517-.057-.764-.15-.538-.202-.968-.593-1.346-.987-.733-.766-1.314-1.594-1.617-2.575-.168-.544-.322-1.091-.408-1.652-.022-.145-.216-.894.015-.852z"/><path fill="#e7502f" style="fill:var(--color4,#e7502f)" opacity=".25" d="M9.609 4.223c1.353 2.147 2.464 4.504 3.182 6.893.435 1.447.739 2.932 1.041 4.406.468 2.282.91 4.565 1.036 6.888.127 2.336.377 5.031-.459 7.282.418-2.285.02-4.717-.051-7.016a38.184 38.184 0 0 0-.259-3.275c-.124-1.058-.327-2.112-.516-3.162-.092-.511-.188-1.022-.287-1.532-.029-.152-.042-.604-.147-.708s-.648-.147-.819-.224a4.388 4.388 0 0 1-.95-.607c-.547-.445-1.023-1.027-1.398-1.6-.869-1.327-1.216-2.946-1.199-4.483.003-.298.528-3.511.317-3.555a.672.672 0 0 0 .036-.042c.023.021.178.262.332.503l.139.234z"/><path fill="#e7502f" style="fill:var(--color4,#e7502f)" opacity=".25" d="M24.21 11.965c.021-.028.157-.219.088-.207.139-.025-.192.211.155.066-.165.142-.07.327-.067.519.004.311-.053.62-.117.924a5.944 5.944 0 0 1-.471 1.397 6.402 6.402 0 0 1-2.248 2.524c-.475.301-.94.404-1.481.542-.342.088-.369.249-.551.553a32.287 32.287 0 0 0-1.082 1.916c-.398.78-.784 1.562-1.149 2.356-1.228 2.675-2.227 5.447-2.751 8.316-.013-1.69.415-3.432.954-5.043.393-1.174.904-2.306 1.449-3.426.132-.272.332-.62.388-.92.039-.21-.081-.412-.136-.633-.215-.861-.199-1.826-.011-2.692.208-.955.808-1.398 1.824-1.533.371-.049.844-.031 1.184-.176.371-.158.524-.676.735-1.009a13.883 13.883 0 0 1 2.013-2.506c.209-.203.434-.393.671-.567l.018-.012c.154-.112.48-.251.584-.39z"/><path fill="#f1f447" style="fill:var(--color2,#f1f447)" opacity=".25" d="M12.531 29.354c-.026-.162.111-.308.29-.308h3.605c.179 0 .316.146.29.308l-.279 1.728c-.085.527-.579.917-1.161.917h-1.305c-.582 0-1.076-.39-1.161-.917l-.279-1.728z"/><path fill="#f58b3d" style="fill:var(--color1,#f58b3d)" d="M9.571 29.93c0 1.143.099 2.07 1.422 2.07s1.422-.927 1.422-2.07z"/><path fill="#f58b3d" style="fill:var(--color1,#f58b3d)" d="M11.387 29.217a2.258 2.258 0 0 0-.13.234v-.039c0-.161.013-.32.038-.474l-.002.017c.046-.286.117-.571.183-.855.048-.204.045-.571.225-.734.05-.035.061.034.061.064.001.006 0-.122-.048-.1-.286.135-.379.56-.47.772-.134.31-.247.628-.294.951a1.957 1.957 0 0 0-.02.243v.002l-.029-.065a4.371 4.371 0 0 0-.67-1.023l.004.005c-.068-.078-.928-.852-.995-.734a.087.087 0 0 0 .042.043c.001.001.001 0 .001-.001.051.075.194.19.239.255.112.164.2.339.289.51.117.21.294.569.463.933l.067.161c.039.085.08.17.122.255-.431-.569-1.006-1.085-1.797-1.38.27.126.447.362.63.544.22.219.452.431.672.649.26.258.566.529.816.814.242.466.478.932.623 1.421-.06-.169-.005-.403-.015-.58a3.77 3.77 0 0 0-.054-.444l.003.022a.794.794 0 0 1 .069.185 7.775 7.775 0 0 0-.044-.352l.007.058c.035-.091.069-.176.092-.246.118-.359.258-.712.448-1.057.204-.364.403-.67.618-.963l-.018.026.311-.425c.068-.093.132-.241.227-.33-.611.511-1.278 1.026-1.665 1.639zM48.436 5.894c-.175-.534-.586-.953-1.013-1.336-.831-.746-1.277-1.207-1.574-2.299-.174-.642-.351-1.322-.904-1.787-.402-.339-1.094-.624-1.632-.381-.827.452-1.05 1.379-.966 2.209.103 1.029.629 1.664 1.638 2.043.569.213.947.495 1.255.986.247.392.391.884.701 1.24.464.532 1.044.768 1.76.68-.67-1.128-1.453-2.267-2.398-3.217-.088-.096-.61-.461-.505-.624.116-.179.651.494.647.49.274.288.528.595.778.904l-.002.001c.186.225.435.54.681.857l.081.109c.08.107.177.244.27.383l.024.038c.138.21.358.806.584.936a.37.37 0 0 0 .135.049c.154.231.304.464.447.7.373.616.693 1.266.84 1.961.043.203.013.962.164 1.108.277.268.196-.248.179-.404-.138-1.29-.644-2.388-1.378-3.472.226-.27.258-.956.187-1.173zm-9.479.623c.292-.314.993-.368 1.422-.347.531.026 1.076.144 1.581.287.832.235 1.64.665 2.373 1.081.088.05 1.176.649 1.08.754s-1.163-.607-1.401-.729c-.508-.262-.973-.571-1.533-.744a5.95 5.95 0 0 0-1.802-.245c-.078.001-.333-.049-.339.057-.005.104.417.05.491.05.307.003.617.029.92.078a4.572 4.572 0 0 1 1.588.558c-.136.289-.461.422-.802.349-.295-.062-.583-.217-.871-.261a1.438 1.438 0 0 0-.591.039c-.509.135-.802.412-1.362.22-.438-.151-1.172-.694-.753-1.146zm-1.254-5.068c-.648-.043-1.371.43-1.684.922-.252.397-.21.918-.054 1.34.104.282.332.685.711.689.474.005.497-.526.506-.836.012-.413.07-.772.429-1.053.044-.035.091-.067.138-.1.041-.029.083-.058.122-.088l.019-.015c.127-.097.26-.198.277-.357.023-.231-.12-.272-.34-.229-.007.001-.026.008-.053.017-.112.038-.352.121-.306.022.017-.037.079-.066.158-.088.204-.02.446-.043.516-.029.753.149 1.046 1.093 1.124 1.693.009.068.016.136.022.204h.138c-.01-.16-.022-.32-.052-.479-.111-.594-.458-1.466-1.219-1.563a2.175 2.175 0 0 0-.256.002.494.494 0 0 0-.194-.052h-.001z"/></symbol><symbol id="icon-btn-hero" viewBox="0 0 32 32"><path d="M21.535 13.314a.21.21 0 0 0-.175-.241l-1.871-.296a.21.21 0 1 0-.066.416l1.663.263-.263 1.664a.21.21 0 1 0 .416.066l.296-1.871zm-9.622 7.067 9.538-6.93-.247-.341-9.538 6.93.248.341zM26.386 17.053a2.27 2.27 0 0 1 .173-.658c.093-.203.196-.358.311-.466l.285.208a1.72 1.72 0 0 0-.436.981c-.031.272-.011.472.059.601a.409.409 0 0 0 .322.218.304.304 0 0 0 .256-.076.592.592 0 0 0 .165-.246c.045-.105.086-.224.123-.355s.077-.263.122-.394c.044-.127.099-.242.166-.345a.758.758 0 0 1 .264-.24c.105-.054.239-.072.403-.054.156.017.291.077.404.177s.195.238.245.413c.053.179.066.389.039.632a2.088 2.088 0 0 1-.139.546 1.5 1.5 0 0 1-.242.436l-.291-.203c.101-.117.178-.246.231-.387.056-.141.093-.283.109-.428.029-.257.005-.453-.072-.586a.402.402 0 0 0-.317-.217.34.34 0 0 0-.267.069.765.765 0 0 0-.177.25 3.414 3.414 0 0 0-.123.355 5.02 5.02 0 0 1-.126.388c-.044.131-.1.248-.166.35a.625.625 0 0 1-.64.303.7.7 0 0 1-.419-.19.906.906 0 0 1-.238-.434 1.826 1.826 0 0 1-.026-.647zM28.356 21.102a1.31 1.31 0 0 1-.356.518.937.937 0 0 1-.531.236c-.208.027-.44-.011-.698-.114l-1.55-.62.145-.36 1.515.606c.281.112.522.126.721.041.202-.081.353-.248.456-.502.076-.19.104-.371.083-.544a.839.839 0 0 0-.2-.457 1.188 1.188 0 0 0-.473-.319l-1.403-.561.145-.361 3.771 1.508-.145.361-1.835-.734.166-.016c.159.162.255.358.289.587.037.231.004.475-.1.732zM24.198 22.446a1.51 1.51 0 0 1 .619-.463 1.43 1.43 0 0 1 .733-.075c.254.041.491.152.712.331.224.182.38.391.469.628s.113.479.07.727c-.042.248-.152.48-.33.698-.18.22-.388.376-.622.468-.237.094-.48.12-.728.078a1.491 1.491 0 0 1-.712-.331 1.496 1.496 0 0 1-.469-.628 1.373 1.373 0 0 1-.075-.73 1.51 1.51 0 0 1 .334-.702zm.268.217a1.094 1.094 0 0 0-.244.514.999.999 0 0 0 .067.541c.073.182.196.342.369.483.176.143.359.23.549.262a.983.983 0 0 0 .541-.047c.175-.064.328-.176.457-.334s.208-.329.236-.514c.031-.182.011-.362-.059-.542s-.193-.34-.369-.483a1.201 1.201 0 0 0-.549-.262 1.059 1.059 0 0 0-.548.048 1.086 1.086 0 0 0-.449.333zM21.663 24.742c.207-.137.425-.215.655-.232a1.3 1.3 0 0 1 .678.147c.219.117.416.306.591.567s.273.513.296.756c.025.247-.015.473-.119.678s-.261.378-.471.517a1.44 1.44 0 0 1-.714.252 1.303 1.303 0 0 1-.715-.142 1.52 1.52 0 0 1-.578-.529c-.162-.243-.253-.489-.271-.74s.029-.488.142-.713c.11-.222.279-.409.507-.561zm.66-1.682 2.19 3.27-.31.206-.481-.719-.288-.499-.368-.452L22 23.274l.324-.215zm-.445 1.953c-.17.113-.297.252-.38.417a1.046 1.046 0 0 0-.1.54c.016.195.087.385.21.57s.272.321.444.408c.172.087.352.125.538.115s.365-.072.535-.185c.17-.113.297-.255.381-.424.081-.168.114-.348.1-.54-.017-.19-.088-.377-.212-.562s-.271-.323-.443-.415a1.05 1.05 0 0 0-.538-.115 1.108 1.108 0 0 0-.536.193zM17.938 29.188c-.231.036-.44.022-.627-.041a.924.924 0 0 1-.473-.337c-.129-.165-.215-.384-.258-.658l-.257-1.65.384-.059.251 1.612c.047.299.157.513.332.641.172.132.393.177.664.136.202-.031.372-.1.511-.206a.833.833 0 0 0 .291-.405c.056-.164.067-.354.033-.57l-.233-1.493.384-.059.442 2.839-.368.057-.121-.779.082.137c-.058.22-.177.402-.358.548-.18.15-.407.246-.681.288zM14.62 26.308c.274.04.513.138.715.293.198.158.344.355.438.59.094.239.12.499.078.78-.042.285-.142.527-.301.725s-.355.342-.59.433a1.492 1.492 0 0 1-.769.075 1.493 1.493 0 0 1-.72-.294 1.33 1.33 0 0 1-.439-.585 1.485 1.485 0 0 1-.078-.78c.042-.282.142-.523.301-.725a1.37 1.37 0 0 1 .591-.439 1.53 1.53 0 0 1 .775-.074zm-.05.341a1.101 1.101 0 0 0-.567.055 1.009 1.009 0 0 0-.431.335 1.196 1.196 0 0 0-.227.564c-.033.224-.015.426.054.605a.964.964 0 0 0 .317.439c.145.117.319.191.521.22s.39.009.562-.061c.172-.067.318-.177.436-.329s.194-.34.227-.564c.033-.22.014-.422-.054-.605a1.046 1.046 0 0 0-.321-.446 1.075 1.075 0 0 0-.516-.214zM12.224 25.818l-.419 3.04-.327-.177.407-2.81.149.081-2.164 1.86-.294-.159.392-2.818.149.081-2.155 1.866-.313-.169 2.331-2.007.323.174-.35 2.66-.101-.055 2.05-1.742.323.174zM7.625 22.196c.139.192.244.393.315.603.068.212.096.396.083.554l-.352.037a1.686 1.686 0 0 0-.077-.498 1.78 1.78 0 0 0-.262-.52c-.16-.222-.31-.357-.449-.405a.41.41 0 0 0-.386.055.305.305 0 0 0-.139.228.604.604 0 0 0 .043.293c.038.108.087.223.148.345s.12.246.175.373c.053.123.09.246.11.366a.747.747 0 0 1-.034.355.697.697 0 0 1-.262.31c-.127.092-.267.138-.419.14s-.306-.045-.46-.141a1.594 1.594 0 0 1-.455-.441 2.076 2.076 0 0 1-.265-.497 1.463 1.463 0 0 1-.114-.484l.353-.045c.004.155.034.302.09.441.053.142.122.272.208.39.152.21.301.338.448.386a.404.404 0 0 0 .381-.052.337.337 0 0 0 .151-.23.759.759 0 0 0-.037-.304 3.283 3.283 0 0 0-.148-.345 5.163 5.163 0 0 1-.168-.372 1.525 1.525 0 0 1-.113-.371.62.62 0 0 1 .271-.653.698.698 0 0 1 .439-.14.916.916 0 0 1 .469.162c.156.104.308.257.456.461zM3.437 20.529a1.306 1.306 0 0 1-.085-.622.924.924 0 0 1 .235-.53c.135-.159.333-.287.593-.383l1.566-.579.136.364-1.53.566c-.284.105-.471.256-.562.453-.095.195-.095.42.001.677.071.192.173.345.305.459a.846.846 0 0 0 .456.205c.172.022.36-.005.566-.081l1.417-.524.136.364-3.809 1.409-.136-.364 1.853-.685-.112.123a1.037 1.037 0 0 1-.61-.241 1.369 1.369 0 0 1-.42-.609zM5.604 16.759c.015.277-.033.53-.145.759a1.414 1.414 0 0 1-.491.547 1.49 1.49 0 0 1-.749.232c-.288.016-.545-.035-.77-.15s-.406-.28-.542-.492a1.49 1.49 0 0 1-.226-.739 1.509 1.509 0 0 1 .145-.764c.112-.229.274-.411.486-.547.212-.139.462-.217.749-.232a1.51 1.51 0 0 1 .77.15c.225.112.408.276.547.491.136.216.212.464.227.744zm-.345.019a1.097 1.097 0 0 0-.167-.545 1.003 1.003 0 0 0-.414-.356 1.195 1.195 0 0 0-.598-.11 1.18 1.18 0 0 0-.583.174.971.971 0 0 0-.368.398c-.086.165-.124.35-.112.554s.068.384.172.539c.1.155.236.276.409.362s.372.122.598.11c.222-.012.416-.07.583-.174.162-.104.287-.238.373-.404.082-.165.118-.348.107-.548zM5.926 13.351c-.061.241-.17.445-.329.612a1.288 1.288 0 0 1-.601.346c-.241.06-.514.052-.818-.024s-.547-.197-.727-.362c-.184-.166-.306-.361-.367-.583s-.06-.455.001-.699c.067-.265.187-.488.359-.666a1.29 1.29 0 0 1 .625-.374c.243-.067.504-.066.784.004.283.071.516.193.698.366s.307.381.374.624c.068.239.068.491.002.756zm.642 1.689-3.818-.954.091-.361.839.21.548.177.576.088 1.859.464-.095.377zm-.983-1.746c.05-.198.05-.386.001-.564a1.042 1.042 0 0 0-.289-.467c-.143-.134-.323-.227-.539-.281s-.417-.055-.603-.004a1.043 1.043 0 0 0-.748.772c-.05.198-.049.388.003.571.053.179.149.334.289.467.141.129.319.221.535.275s.418.058.607.011c.186-.051.345-.143.476-.276.129-.137.218-.305.268-.503zM5.683 7.578c.147-.181.311-.311.493-.39a.932.932 0 0 1 .577-.069c.206.035.418.14.634.314l1.3 1.048-.245.302-1.27-1.024c-.236-.19-.462-.274-.678-.251-.216.018-.411.133-.583.345a1.094 1.094 0 0 0-.24.496.84.84 0 0 0 .056.495c.069.159.188.306.359.444l1.176.948-.245.302L4.78 8.735l.234-.289.614.495-.153-.046a1.027 1.027 0 0 1-.103-.646c.033-.231.136-.455.311-.67zM10.033 7.512a1.52 1.52 0 0 1-.727.263 1.434 1.434 0 0 1-.723-.141 1.497 1.497 0 0 1-.585-.524c-.161-.239-.25-.485-.267-.737s.032-.491.144-.716c.112-.225.285-.415.519-.572.236-.159.48-.247.731-.267.254-.021.494.024.72.137.229.11.424.285.585.524.159.236.248.482.267.737.019.251-.027.491-.141.721-.115.227-.29.419-.523.575zm-.193-.285c.173-.116.3-.256.383-.421.08-.168.111-.347.093-.537a1.19 1.19 0 0 0-.213-.569 1.188 1.188 0 0 0-.449-.411.975.975 0 0 0-.531-.112c-.186.011-.364.073-.534.187a1.051 1.051 0 0 0-.476.959c.015.192.086.382.213.569.125.184.274.321.449.411.173.086.352.124.539.113.184-.014.36-.077.527-.188zM12.183 6.236 10.45 3.699l.362-.087L12.4 5.97l-.165.04.354-2.828.325-.079 1.604 2.355-.165.04.343-2.826.346-.084-.379 3.048-.356.086-1.529-2.209.112-.027-.349 2.664-.356.086zM18.017 5.834a2.296 2.296 0 0 1-.638-.237 1.477 1.477 0 0 1-.433-.356l.236-.263a1.73 1.73 0 0 0 .933.53c.268.057.469.057.605.001a.407.407 0 0 0 .249-.299.305.305 0 0 0-.05-.263.605.605 0 0 0-.228-.189c-.1-.055-.214-.107-.341-.157s-.254-.103-.38-.16a1.558 1.558 0 0 1-.327-.199.754.754 0 0 1-.213-.286.692.692 0 0 1-.013-.406c.033-.153.105-.282.217-.385s.257-.171.436-.203c.183-.035.394-.028.633.023.182.039.359.103.53.192.172.085.308.18.409.283l-.232.27a1.257 1.257 0 0 0-.362-.268 1.61 1.61 0 0 0-.416-.15c-.253-.054-.45-.05-.591.014a.401.401 0 0 0-.248.294.337.337 0 0 0 .042.272.769.769 0 0 0 .231.201c.104.056.217.108.341.157.127.05.252.104.373.164.126.057.237.123.332.2a.615.615 0 0 1 .237.667.696.696 0 0 1-.231.398.908.908 0 0 1-.456.194 1.816 1.816 0 0 1-.647-.038zM22.287 4.274c.207.108.367.243.48.405.118.16.178.344.181.551.006.209-.056.436-.185.682l-.776 1.478-.345-.18.758-1.444c.141-.268.179-.506.114-.712-.06-.208-.211-.375-.454-.502a1.098 1.098 0 0 0-.534-.136.85.85 0 0 0-.476.153 1.192 1.192 0 0 0-.366.439l-.702 1.338-.345-.18 1.887-3.596.345.18-.918 1.75.001-.166c.178-.142.382-.218.615-.229.234-.014.474.043.72.172zM23.225 8.529a1.517 1.517 0 0 1-.402-.659 1.427 1.427 0 0 1-.003-.734c.066-.248.2-.472.401-.674.203-.204.428-.339.673-.404s.49-.065.733.001.465.198.664.396c.202.2.338.421.406.663.071.245.073.488.007.73-.064.245-.197.47-.401.674a1.502 1.502 0 0 1-.673.404 1.376 1.376 0 0 1-.737.003 1.53 1.53 0 0 1-.668-.399zm.244-.245c.148.146.311.244.49.292.181.046.363.041.547-.014.188-.055.361-.161.518-.319.16-.16.265-.333.316-.519a.958.958 0 0 0 .006-.541c-.047-.18-.143-.342-.289-.486s-.308-.238-.489-.284c-.179-.048-.361-.046-.547.006s-.359.158-.518.319a1.206 1.206 0 0 0-.316.519 1.044 1.044 0 0 0-.006.549c.05.178.146.337.289.478zM25.257 11.22a1.347 1.347 0 0 1-.17-.673c.008-.232.078-.452.211-.659.138-.206.345-.383.621-.531s.538-.222.783-.22c.248-.001.47.061.665.184s.352.296.472.517c.13.241.191.485.184.734-.002.25-.072.482-.209.696a1.508 1.508 0 0 1-.582.523c-.257.138-.512.204-.764.198s-.484-.076-.698-.21a1.443 1.443 0 0 1-.512-.558zm-1.616-.817 3.469-1.858.177.328-.762.408-.525.238-.486.322-1.689.904-.184-.342zm1.907.631c.097.18.224.319.38.417.16.097.336.147.529.151.196.003.392-.049.589-.154s.346-.239.449-.402c.103-.163.158-.337.166-.523s-.037-.369-.134-.549a1.043 1.043 0 0 0-.917-.57c-.191-.001-.385.051-.581.156s-.348.238-.456.4a1.047 1.047 0 0 0-.166.523 1.11 1.11 0 0 0 .142.551z"/></symbol><symbol id="icon-Logo" viewBox="0 0 32 32"><path d="M12.711 27.852v-3.848l-.172-.721v-6.561c0-1.397-.412-2.473-1.237-3.229-.802-.779-2.015-1.168-3.641-1.168-1.076 0-2.13.183-3.16.55-1.031.344-1.901.813-2.611 1.409L.516 11.811c.939-.756 2.061-1.328 3.367-1.718a13.95 13.95 0 0 1 4.157-.618c2.496 0 4.42.607 5.771 1.821s2.027 3.069 2.027 5.565v10.993h-3.126zm-5.978.206c-1.351 0-2.542-.229-3.573-.687-1.008-.458-1.786-1.088-2.336-1.889C.274 24.658 0 23.73 0 22.699c0-.985.229-1.878.687-2.68.481-.802 1.248-1.443 2.302-1.924 1.076-.481 2.519-.721 4.329-.721h5.771v2.37H7.455c-1.649 0-2.76.275-3.332.825s-.859 1.214-.859 1.992c0 .893.355 1.615 1.065 2.164.71.527 1.695.79 2.954.79 1.237 0 2.313-.275 3.229-.825.939-.55 1.615-1.351 2.027-2.405l.653 2.267c-.435 1.076-1.202 1.935-2.302 2.576-1.099.618-2.485.927-4.157.927z"/><path d="M23.257 28.058c-1.947 0-3.664-.401-5.153-1.202-1.466-.802-2.611-1.901-3.435-3.298-.802-1.397-1.202-3-1.202-4.809s.389-3.412 1.168-4.809a8.591 8.591 0 0 1 3.264-3.264c1.397-.802 2.966-1.202 4.706-1.202 1.763 0 3.321.389 4.672 1.168s2.405 1.878 3.16 3.298c.779 1.397 1.168 3.035 1.168 4.913 0 .137-.011.298-.034.481 0 .183-.011.355-.034.515H16.044v-2.37H29.82l-1.34.824c.023-1.168-.218-2.21-.721-3.126s-1.202-1.626-2.096-2.13c-.87-.527-1.889-.79-3.057-.79-1.145 0-2.164.263-3.057.79a5.306 5.306 0 0 0-2.096 2.164c-.504.916-.756 1.97-.756 3.16v.55c0 1.214.275 2.302.825 3.264.573.939 1.363 1.672 2.37 2.199s2.164.79 3.47.79c1.076 0 2.05-.183 2.92-.55a6.391 6.391 0 0 0 2.336-1.649l1.821 2.13c-.825.962-1.855 1.695-3.092 2.199-1.214.504-2.576.756-4.088.756zM29.2 6.055H17.176V3.479H29.2v2.576z"/></symbol><symbol id="chevron-up" viewBox="0 0 32 32"><path d="M15.292 9.292a.998.998 0 0 1 1.416 0l12 12a1 1 0 1 1-1.416 1.416L16 11.414 4.708 22.708a1 1 0 1 1-1.416-1.416l12-12z"/></symbol></defs></svg>