<svg aria-hidden="true" style="position: absolute; width: 0; height: 0; overflow: hidden;" version="1.1" xmlns="http://www.w3.org/2000/svg" xmlns:xlink="http://www.w3.org/1999/xlink">
<defs>
<symbol id="icon-close" viewBox="0 0 32 32">
<path stroke-linejoin="round" stroke-linecap="round" stroke-miterlimit="4" stroke-width="2.6667" d="M24 8l-16 16"></path>
<path stroke-linejoin="round" stroke-linecap="round" stroke-miterlimit="4" stroke-width="2.6667" d="M8 8l16 16"></path>
</symbol>
<symbol id="icon-Burger" viewBox="0 0 32 32">
<path d="M4 5.333h24v2.667h-24v-2.667zM12 14.667h16v2.667h-16v-2.667zM4 24h24v2.667h-24v-2.667z"></path>
</symbol>
<symbol id="icon-instagram" viewBox="0 0 32 32">
<path stroke-linejoin="round" stroke-linecap="round" stroke-miterlimit="4" stroke-width="2.2857" d="M22.666 2.667h-13.333c-3.682 0-6.667 2.985-6.667 6.667v13.333c0 3.682 2.985 6.667 6.667 6.667h13.333c3.682 0 6.667-2.985 6.667-6.667v-13.333c0-3.682-2.985-6.667-6.667-6.667z"></path>
<path stroke-linejoin="round" stroke-linecap="round" stroke-miterlimit="4" stroke-width="2.2857" d="M21.333 15.16c0.164 1.11-0.025 2.243-0.542 3.239s-1.334 1.803-2.336 2.308c-1.002 0.504-2.137 0.68-3.245 0.502s-2.131-0.701-2.924-1.494c-0.793-0.793-1.316-1.816-1.494-2.924s-0.003-2.243 0.502-3.245c0.504-1.002 1.312-1.82 2.307-2.336s2.129-0.706 3.239-0.542c1.132 0.168 2.18 0.695 2.989 1.504s1.337 1.857 1.504 2.989z"></path>
<path stroke-linejoin="round" stroke-linecap="round" stroke-miterlimit="4" stroke-width="2.2857" d="M23.334 8.667h0.013"></path>
</symbol>
<symbol id="icon-facebook" viewBox="0 0 32 32">
<path stroke-linejoin="round" stroke-linecap="round" stroke-miterlimit="4" stroke-width="2.2857" d="M24 2.667h-4c-1.768 0-3.464 0.702-4.714 1.953s-1.953 2.946-1.953 4.714v4h-4v5.333h4v10.667h5.333v-10.667h4l1.333-5.333h-5.333v-4c0-0.354 0.14-0.693 0.39-0.943s0.589-0.391 0.943-0.391h4v-5.333z"></path>
</symbol>
<symbol id="icon-tel" viewBox="0 0 32 32">
<path d="M29.276 6.061l-3.873-3.869c-0.473-0.473-1.105-0.738-1.775-0.738s-1.302 0.262-1.775 0.738l-4.171 4.163c-0.473 0.473-0.738 1.109-0.738 1.778 0 0.673 0.262 1.302 0.738 1.778l3.258 3.261c-0.742 1.729-1.809 3.3-3.142 4.629-1.335 1.342-2.895 2.4-4.625 3.149l-3.258-3.261c-0.473-0.473-1.105-0.738-1.775-0.738-0.33-0.001-0.657 0.063-0.962 0.19s-0.581 0.313-0.813 0.548l-4.175 4.163c-0.473 0.473-0.738 1.109-0.738 1.778 0 0.673 0.262 1.302 0.738 1.778l3.869 3.869c0.807 0.807 1.92 1.269 3.062 1.269 0.236 0 0.465-0.018 0.698-0.058 4.814-0.793 9.593-3.356 13.451-7.21 3.855-3.861 6.415-8.639 7.215-13.456 0.229-1.367-0.229-2.774-1.211-3.76zM27.909 9.388c-0.709 4.287-3.015 8.563-6.487 12.035s-7.746 5.777-12.033 6.486c-0.538 0.091-1.091-0.091-1.484-0.48l-3.8-3.8 4.029-4.032 4.389 4.396 0.785-0.291c2.382-0.875 4.544-2.258 6.338-4.053s3.176-3.957 4.051-6.339l0.291-0.785-4.393-4.389 4.029-4.032 3.8 3.8c0.393 0.393 0.575 0.945 0.484 1.483z"></path>
</symbol>
<symbol id="icon-thanck-you" viewBox="0 0 58 32">
<path fill="#f58b3d" style="fill: var(--color1, #f58b3d)" opacity="0.505" d="M46.999 25.599c0.539 3.691-12.54 6.099-23.798 4.419s-16.423-8.242-11.050-11.738c5.372-3.496 34.309 3.628 34.849 7.319z"></path>
<path fill="#f58b3d" style="fill: var(--color1, #f58b3d)" d="M30.819 10.218c0.204-0.142 0.519-0.052 0.724 0.032 0.079 0.032 0.281 0.136 0.43 0.253-0.014-0.049-0.032-0.132-0.048-0.215l-0.005-0.029c-0.058-0.291-0.103-0.643-0.127-1l-0.001-0.025c-0.005-0.089 0.002-0.189 0.009-0.29v-0c0.002-0.034 0.005-0.069 0.007-0.103-0.009-0.009-0.015-0.021-0.016-0.034l-0-0-0.002 0.015c-0.001 0.006-0.001 0.009-0.002 0.009s-0.003-0.002-0.007-0.008c-0.002-0.003-0.004-0.005-0.006-0.008l0 0c-0.151-0.207-0.279-0.441-0.296-0.697-0.015-0.218 0.181-0.63 0.458-0.345 0.124 0.127 0.092 1.022-0.094 1.077 0.050 0.296 0.112 0.592 0.191 0.884 0.006-0.001 0.013-0.002 0.020-0.002 0.005 0 0.011 0 0.016 0.001l-0.001-0c-0.001-0.073-0.001-0.152 0.002-0.179 0.028-0.235 0.242-0.711 0.583-0.619 0.262 0.071 0.101 0.364 0.012 0.492-0.144 0.206-0.306 0.296-0.512 0.403-0.004 0.044-0.035 0.070-0.072 0.078 0.138 0.472 0.319 0.932 0.556 1.367l0.006-0.028c0.030-0.132 0.065-0.286 0.087-0.318 0.116-0.169 0.373-0.376 0.61-0.276 0.498 0.211-0.042 0.815-0.466 0.881-0.018 0.022-0.036 0.040-0.056 0.051 0.095 0.152 0.182 0.277 0.275 0.399l-0.010-0.014c0.163 0.216 0.311 0.399 0.465 0.578l-0.013-0.015c0.005-0.146 0.068-0.471 0.086-0.506 0.109-0.212 0.422-0.431 0.676-0.28 0.286 0.17 0.027 0.491-0.136 0.637-0.067 0.060-0.397 0.278-0.514 0.279 0.384 0.44 0.808 0.872 1.24 1.289-0.036-0.186-0.082-0.7-0.077-0.757 0.027-0.294 0.238-0.765 0.654-0.651 0.404 0.111 0.225 0.6 0.087 0.833-0.084 0.141-0.199 0.285-0.339 0.383-0.025 0.018-0.058 0.032-0.091 0.047-0.040 0.017-0.079 0.035-0.105 0.058-0.023 0.021-0.030 0.044-0.037 0.067-0.007 0.025-0.015 0.049-0.041 0.070 0.21 0.202 0.438 0.416 0.667 0.628l0.032 0.029c0.096 0.089 0.205 0.186 0.314 0.282l0.018 0.016c0.061-0.023 0.149 0.007 0.144 0.087-0.001 0.011-0.003 0.022-0.008 0.031l0-0.001c0.085 0.072 0.171 0.144 0.257 0.215-0.001-0.009-0.001-0.020-0.001-0.032 0-0.021 0.001-0.041 0.004-0.061l-0 0.002c-0.062 0.081-0.060-0.037-0.057-0.127 0.001-0.032 0.001-0.060-0.001-0.075-0.009-0.058-0.021-0.115-0.033-0.172-0.025-0.122-0.050-0.243-0.049-0.369 0.003-0.267 0.187-0.715 0.576-0.556 0.357 0.146 0.227 0.542 0.093 0.79-0.085 0.157-0.202 0.297-0.324 0.431-0.023 0.026-0.046 0.055-0.067 0.085l-0.002 0.004c-0.036 0.048-0.071 0.095-0.096 0.112 0.332 0.272 0.672 0.537 1.011 0.801l0 0c0.152 0.118 0.304 0.237 0.455 0.356 0.007-0.026 0.012-0.052 0.017-0.076-0.009 0.009-0.020 0.014-0.033 0.014-0.002 0-0.004-0-0.006-0l0 0c-0.012-0.055-0.018-0.081-0.025-0.108l0.006 0.029c-0.093-0.39-0.378-1.58 0.393-1.349 0.565 0.169 0.166 1.205-0.255 1.567 0.305 0.24 0.552 0.443 0.794 0.649l-0.037-0.031c0.189 0.161 0.358 0.316 0.522 0.476l-0.002-0.002c-0.087-0.211-0.168-0.485-0.114-0.702 0.078-0.317 0.443-0.616 0.799-0.436 0.444 0.226 0.102 0.534-0.218 0.823-0.163 0.148-0.322 0.29-0.367 0.414 0.531 0.535 0.985 1.13 1.288 1.807 0.33 0.736 0.636 1.726 0.466 2.55 0.031-0.362-0.102-0.817-0.196-1.137 0.024 0.099 0.012 0.058-0 0.017l-0.035-0.14c-0.155-0.544-0.362-1.018-0.621-1.458l0.016 0.029c-0.423-0.723-0.982-1.336-1.626-1.893-0.147 0.047-0.306 0.134-0.438 0.205-0.081 0.044-0.152 0.083-0.203 0.103-0.247 0.097-0.72 0.237-0.878-0.070-0.155-0.302 0.24-0.471 0.484-0.539 0.236-0.065 0.449-0.058 0.67-0.004-0.341-0.277-0.691-0.546-1.040-0.814l-0-0-0.193-0.148c-0.089 0.067-0.187 0.163-0.291 0.266-0.331 0.325-0.723 0.71-1.073 0.396-0.528-0.475 0.482-0.958 0.912-0.92 0.053 0.005 0.104 0.015 0.154 0.029-0.439-0.341-0.871-0.69-1.28-1.062-0.073 0.012-0.19 0.111-0.33 0.23-0.315 0.267-0.749 0.634-1.076 0.345-0.236-0.209-0.155-0.534 0.073-0.72s0.561-0.186 0.843-0.124c0.122 0.027 0.234 0.079 0.339 0.142l0.013 0.001c-0.402-0.371-0.807-0.75-1.196-1.142l-0.021 0.006c-0.024 0.026-0.063 0.036-0.099 0.030l-0.061 0.019c-0.309 0.098-0.705 0.223-1.013 0.169-0.226-0.040-0.432-0.208-0.24-0.416 0.156-0.169 0.579-0.145 0.785-0.105 0.101 0.020 0.21 0.076 0.32 0.133 0.046 0.024 0.093 0.048 0.138 0.069 0.012-0.021 0.032-0.036 0.055-0.043l0.001-0c-0.385-0.394-0.752-0.801-1.085-1.227-0.101 0.014-0.213 0.055-0.328 0.097-0.277 0.101-0.575 0.209-0.789-0.024-0.316-0.344 0.278-0.544 0.56-0.512 0.095 0.011 0.189 0.036 0.28 0.068-0.226-0.321-0.415-0.691-0.548-1.087l-0.009-0.031-0.004 0.002c-0.002 0.001-0.003 0.002-0.005 0.003l-0 0 0.005-0.003 0.004-0.002c-0.004-0.008-0.017-0.048-0.029-0.087l-0.008-0.031c-0.014-0.008-0.031-0.015-0.049-0.022l-0.003-0.001c0.128 0.081-0.413 0.12-0.514 0.128-0.224 0.016-0.524 0.023-0.688-0.145-0.138-0.141-0.13-0.35 0.039-0.468zM41.124 22.106c-0.010 0.119-0.033 0.229-0.077 0.319 0.033-0.103 0.058-0.209 0.077-0.319z"></path>
<path fill="#f1f447" style="fill: var(--color2, #f1f447)" opacity="0.2" d="M20.656 2.592c-0.148-0.103-0.379-0.037-0.529 0.024-0.058 0.023-0.205 0.098-0.314 0.183 0.014-0.058 0.027-0.117 0.039-0.177 0.046-0.244 0.078-0.494 0.094-0.741 0.004-0.065-0.001-0.137-0.006-0.21-0.001-0.012-0.003-0.038-0.005-0.063l-0.001-0.011c0.006-0.007 0.011-0.015 0.012-0.025l0-0 0.001 0.011c0 0.004 0.001 0.007 0.002 0.007s0.002-0.002 0.005-0.006l0.004-0.005c0.111-0.15 0.204-0.319 0.216-0.504 0.011-0.157-0.132-0.455-0.334-0.249-0.091 0.092-0.067 0.739 0.068 0.779-0.044 0.26-0.092 0.476-0.151 0.687l0.011-0.048c-0.004-0.001-0.009-0.001-0.015-0.001-0.004 0-0.008 0-0.012 0.001l0-0c0-0.014 0.001-0.031 0.001-0.048 0-0.029-0.001-0.057-0.002-0.085l0 0.004c-0.020-0.17-0.177-0.514-0.425-0.447-0.192 0.052-0.074 0.263-0.009 0.356 0.105 0.149 0.223 0.214 0.373 0.291 0.003 0.032 0.026 0.051 0.053 0.057-0.101 0.341-0.233 0.674-0.406 0.989l-0.005-0.020c-0.022-0.095-0.048-0.207-0.064-0.23-0.085-0.122-0.272-0.272-0.445-0.199-0.363 0.152 0.031 0.589 0.34 0.637 0.011 0.015 0.025 0.027 0.040 0.036l0.001 0c-0.070 0.109-0.133 0.2-0.2 0.288l0.007-0.010c-0.119 0.156-0.227 0.288-0.339 0.417l0.009-0.010c-0.004-0.106-0.049-0.341-0.062-0.366-0.079-0.153-0.308-0.311-0.493-0.202-0.209 0.123-0.020 0.355 0.099 0.46 0.049 0.043 0.29 0.201 0.375 0.202-0.281 0.318-0.591 0.631-0.906 0.933 0.026-0.135 0.061-0.507 0.057-0.548-0.019-0.213-0.173-0.553-0.477-0.47-0.295 0.080-0.165 0.434-0.064 0.603 0.061 0.102 0.146 0.206 0.247 0.277 0.018 0.013 0.042 0.023 0.066 0.034 0.029 0.013 0.058 0.025 0.076 0.042 0.017 0.015 0.022 0.032 0.027 0.049s0.011 0.035 0.030 0.050c-0.151 0.144-0.317 0.299-0.485 0.452l-0.026 0.023c-0.070 0.064-0.149 0.134-0.229 0.203l-0.014 0.012c-0.045-0.017-0.109 0.005-0.105 0.063 0.001 0.008 0.003 0.016 0.006 0.023l-0-0c-0.062 0.052-0.125 0.105-0.188 0.156 0.001-0.007 0.001-0.015 0.001-0.024 0-0.015-0.001-0.029-0.003-0.043l0 0.002c0.045 0.058 0.043-0.027 0.042-0.092-0-0.023-0.001-0.043 0.001-0.054 0.007-0.042 0.015-0.083 0.024-0.124 0.019-0.088 0.037-0.176 0.036-0.267-0.002-0.193-0.137-0.517-0.42-0.402-0.261 0.106-0.166 0.392-0.068 0.571 0.062 0.114 0.148 0.215 0.236 0.312 0.016 0.017 0.034 0.041 0.051 0.064 0.026 0.035 0.051 0.068 0.070 0.081-0.169 0.139-0.409 0.329-0.652 0.516l-0.087 0.064c-0.111 0.086-0.222 0.171-0.333 0.258-0.003-0.011-0.007-0.030-0.011-0.049l-0.001-0.007c0.006 0.006 0.015 0.010 0.025 0.010 0.001 0 0.003-0 0.004-0l-0 0c0.003-0.014 0.008-0.034 0.013-0.057 0.068-0.282 0.277-1.143-0.286-0.976-0.413 0.123-0.122 0.871 0.186 1.133-0.187 0.146-0.372 0.295-0.553 0.447-0.138 0.117-0.262 0.229-0.382 0.345l0.002-0.002c0.063-0.153 0.123-0.351 0.084-0.508-0.057-0.229-0.323-0.445-0.583-0.315-0.324 0.163-0.075 0.386 0.159 0.595 0.119 0.107 0.235 0.21 0.268 0.299-0.388 0.387-0.72 0.817-0.941 1.307-0.241 0.533-0.465 1.249-0.342 1.844-0.023-0.262 0.075-0.591 0.144-0.822 0.009-0.031 0.018-0.061 0.026-0.089 0.114-0.394 0.265-0.736 0.454-1.054l-0.011 0.020c0.309-0.523 0.717-0.966 1.188-1.37 0.107 0.034 0.224 0.097 0.32 0.149 0.059 0.032 0.111 0.060 0.148 0.074 0.18 0.070 0.526 0.171 0.641-0.051 0.113-0.219-0.175-0.341-0.354-0.389-0.172-0.047-0.328-0.041-0.489-0.003 0.249-0.201 0.505-0.395 0.76-0.589l0.141-0.107c0.065 0.048 0.137 0.118 0.213 0.192 0.241 0.235 0.527 0.513 0.783 0.286 0.386-0.344-0.351-0.692-0.666-0.665-0.042 0.004-0.080 0.011-0.117 0.022l0.004-0.001c0.321-0.247 0.636-0.499 0.935-0.769 0.054 0.009 0.139 0.080 0.241 0.166 0.23 0.193 0.547 0.458 0.785 0.249 0.172-0.151 0.114-0.386-0.053-0.521s-0.41-0.135-0.615-0.089c-0.089 0.019-0.171 0.057-0.248 0.103-0.003 0-0.006 0-0.009 0 0.294-0.268 0.589-0.542 0.874-0.826l0.015 0.005c0.017 0.019 0.046 0.026 0.072 0.022l0.044 0.014h0c0.225 0.071 0.515 0.161 0.739 0.122 0.165-0.029 0.315-0.151 0.176-0.301-0.114-0.122-0.422-0.104-0.573-0.075-0.073 0.014-0.154 0.055-0.234 0.096-0.034 0.017-0.067 0.035-0.101 0.050-0.009-0.015-0.023-0.027-0.040-0.031l-0-0c0.281-0.285 0.549-0.58 0.793-0.887 0.074 0.010 0.155 0.040 0.239 0.070 0.203 0.073 0.42 0.151 0.576-0.017 0.23-0.249-0.203-0.393-0.409-0.37-0.070 0.008-0.138 0.026-0.204 0.050 0.165-0.232 0.303-0.5 0.401-0.786l0.007-0.022 0.003 0.001c0.001 0.001 0.003 0.001 0.004 0.002l0 0-0.004-0.002-0.003-0.002c0.009-0.029 0.019-0.057 0.027-0.086 0.016-0.008 0.031-0.014 0.038-0.017-0.094 0.059 0.301 0.087 0.375 0.092 0.163 0.012 0.382 0.016 0.502-0.106 0.101-0.102 0.095-0.253-0.028-0.338zM13.12 11.167c0.007 0.080 0.028 0.152 0.071 0.212-0.028-0.060-0.053-0.131-0.070-0.204l-0.001-0.007z"></path>
<path fill="#b45661" style="fill: var(--color3, #b45661)" opacity="0.48999999999999994" d="M36.709 16.63c0.801-0.038 1.792 0.39 1.878 1.187 0.062 0.579 0.043 1.156 0.139 1.735 0.077 0.462 0.239 0.906 0.461 1.326 0.213 0.405 0.655 0.749 0.77 1.182 0.073 0.276 0.032 0.663-0.069 0.933-0.123 0.328-0.057 0.302 0.187 0.577 0.48 0.539 0.912 1.091 1.218 1.735 0.44 0.927 0.729 2.010 0.565 3.025-0.021 0.129-0.045 0.591-0.239 0.623-0.217 0.036-0.115-0.228-0.104-0.314 0.074-0.545 0.139-1.021 0.050-1.575-0.343-2.136-2.017-3.543-3.108-5.355-0.060-0.093-0.186-0.316-0.275-0.463-0.139-0.232-0.279-0.673-0.467-0.845-0.354-0.324-0.029 0.327 0.040 0.451 0.087 0.157 0.183 0.324 0.273 0.462 0.409 0.639 0.866 1.336 1.288 1.994-1.827 0.381-3.114-1.629-3.604-2.95-0.404-1.089-0.887-3.634 0.995-3.727z"></path>
<path fill="#e7502f" style="fill: var(--color4, #e7502f)" opacity="0.48999999999999994" d="M47.448 14.608c-1.339 0.097-2.199 0.906-2.599 2.037-0.216 0.609-0.24 1.236-0.36 1.862-0.18 0.942-0.568 1.657-1.327 2.328-0.235 0.208-0.408 0.421-0.531 0.65-0.244 0.228-0.457 0.486-0.613 0.802-0.199 0.403-0.256 0.886-0.026 1.288 0.062 0.108 0.217 0.325 0.377 0.423-0.6 1.168-0.929 2.448-0.892 3.726 0.023 0.771 0.064 1.543 0.112 2.314 0.013 0.207 0.087 0.549 0.197 0.201 0.101-0.317-0.026-0.816-0.038-1.147-0.057-1.615-0.106-3.084 0.621-4.593 0.076-0.158 0.157-0.315 0.241-0.471 0.005-0.003 0.010-0.006 0.014-0.009l0.009 0.007c0.005-0.009 0.013-0.019 0.021-0.031 0.024-0.023 0.045-0.052 0.065-0.084 0.064-0.082 0.137-0.178 0.138-0.23l-0-0.001c0.45-0.672 0.965-1.307 1.492-1.929-0.004 0.005 0.571-0.712 0.482-0.316-0.043 0.191-0.466 0.554-0.636 0.756-0.378 0.45-0.821 1.020-1.19 1.571-0.050 0.026-0.12 0.154-0.17 0.25-0.028 0.048-0.054 0.097-0.080 0.14 1.306 0.395 2.322-0.401 3.015-1.326l0.002-0.003c0.211-0.256 0.427-0.509 0.697-0.712 0.45-0.337 0.932-0.397 1.463-0.563 1.447-0.453 2.063-2.169 2.258-3.443 0.221-1.437-0.858-3.64-2.742-3.498z"></path>
<path fill="#e7502f" style="fill: var(--color4, #e7502f)" opacity="0.48999999999999994" d="M44.802 10.585c-1.375 1.309-2.039 3.125-2.565 4.832-0.587 1.907-0.975 3.843-0.99 5.825-0.010 1.302-0.048 2.613 0.035 3.913 0.029 0.462 0.080 0.925 0.16 1.382 0.007 0.038 0.186 1.058 0.357 0.82 0.097-0.135-0.184-1.059-0.205-1.212-0.119-0.866-0.147-1.739-0.141-2.611 0.010-1.436-0.037-2.866 0.122-4.297 0.024-0.214 0.042-0.438 0.098-0.647 0.059-0.222-0.016-0.125 0.176-0.213 0.186-0.086 0.417-0.073 0.61-0.181 0.767-0.426 1.16-1.519 1.465-2.236 0.349-0.82 0.562-1.695 0.731-2.559 0.112-0.532 0.206-1.184 0.26-1.848l0.004-0.059c0.016-0.202 0.017-0.414 0.060-0.613 0.012-0.054 0.071-0.149 0.068-0.196-0.005-0.101-0.071-0.16-0.076-0.244-0.058 0.047-0.114 0.096-0.169 0.145zM37.306 28.026c0 2.165 1.918 3.92 4.284 3.92s4.284-1.755 4.284-3.92z"></path>
<path fill="#b45661" style="fill: var(--color3, #b45661)" opacity="0.48999999999999994" d="M44.527 24.594c1.060-0.071 2.244 0.711 2.756 1.526 0.412 0.657 0.343 1.519 0.088 2.217-0.171 0.467-0.543 1.133-1.163 1.139-0.777 0.008-0.814-0.87-0.829-1.383-0.020-0.682-0.114-1.277-0.702-1.742-0.060-0.047-0.133-0.102-0.208-0.154l-0.017-0.011c-0.084-0.058-0.149-0.106-0.213-0.155l0.013 0.009-0.031-0.024c-0.208-0.16-0.426-0.328-0.453-0.591-0.038-0.382 0.197-0.451 0.557-0.38 0.012 0.002 0.043 0.013 0.086 0.028 0.184 0.064 0.576 0.2 0.501 0.037-0.028-0.061-0.13-0.11-0.259-0.146-0.333-0.033-0.73-0.072-0.844-0.049-1.232 0.247-1.712 1.809-1.839 2.801-0.010 0.066-0.022 0.177-0.032 0.288l-0.003 0.034h-0.226c0.016-0.26 0.036-0.519 0.084-0.776 0.182-0.983 0.749-2.426 1.995-2.586 0.046-0.006 0.215-0.007 0.42 0.004 0.093-0.048 0.202-0.079 0.318-0.086l0.002-0z"></path>
<path fill="#b45661" style="fill: var(--color3, #b45661)" opacity="0.25" d="M18.539 9.471c0.247-0.322 0.704-1.139 1.051-1.254 0.224-0.074 0.158 0.692 0.161 0.838 0.011 0.565-0.049 1.127-0.124 1.687-0.134 1.011-0.571 1.911-1.171 2.771-0.309 0.442-0.671 0.89-1.172 1.167-0.231 0.127-0.509 0.148-0.737 0.258-0.265 0.127-0.121 0.024-0.241 0.277-0.166 0.352-0.219 0.805-0.296 1.18-0.353 1.722-1.208 10.823-1.059 12.574 0.013 0.155-0.223 0.192-0.235 0.003-0.063-1.005 0.48-7.963 0.755-10.238s0.551-4.286 0.829-5.073c0.337-0.955 0.947-2.104 1.454-2.994 0.236-0.414 0.492-0.813 0.785-1.196z"></path>
<path fill="#f1f447" style="fill: var(--color2, #f1f447)" opacity="0.25" d="M20.369 20.631c0.642-0.431 1.337 0.382 0.756 0.814-0.321 0.238-0.657 0.154-0.846-0.045-0.123 0.137-0.237 0.28-0.348 0.401-0.311 0.341-0.625 0.709-0.925 1.088l-0.033 0.043c-0.631 0.801-1.171 1.648-1.736 2.479-0.558 0.82-1.111 1.645-1.616 2.486-0.428 0.713-0.999 1.551-1.146 2.332 0.222-1.657 1.066-3.249 2.072-4.71 0.997-1.449 2.141-3.031 3.685-4.174-0.157-0.211-0.161-0.513 0.137-0.713z"></path>
<path fill="#b45661" style="fill: var(--color3, #b45661)" opacity="0.25" d="M8.192 16.591c0.359 0.064 0.946 0.807 1.242 1.091 0.352 0.337 0.671 0.695 0.972 1.071 0.648 0.809 1.227 1.669 1.719 2.566 0.803 1.462 1.446 2.963 1.913 4.556 0.286 0.975 0.471 1.985 0.581 2.988 0.021 0.189 0.237 1.648-0.075 1.687-0.281 0.035-0.194-1.108-0.208-1.263-0.153-1.754-0.612-3.461-1.251-5.114-0.139-0.36-0.268-0.801-0.491-1.125-0.16-0.233-0.001-0.152-0.283-0.24-0.242-0.076-0.517-0.057-0.764-0.15-0.538-0.202-0.968-0.593-1.346-0.987-0.733-0.766-1.314-1.594-1.617-2.575-0.168-0.544-0.322-1.091-0.408-1.652-0.022-0.145-0.216-0.894 0.015-0.852z"></path>
<path fill="#e7502f" style="fill: var(--color4, #e7502f)" opacity="0.25" d="M9.609 4.223c1.353 2.147 2.464 4.504 3.182 6.893 0.435 1.447 0.739 2.932 1.041 4.406 0.468 2.282 0.91 4.565 1.036 6.888 0.127 2.336 0.377 5.031-0.459 7.282 0.418-2.285 0.020-4.717-0.051-7.016-0.034-1.098-0.131-2.184-0.259-3.275-0.124-1.058-0.327-2.112-0.516-3.162-0.092-0.511-0.188-1.022-0.287-1.532-0.029-0.152-0.042-0.604-0.147-0.708s-0.648-0.147-0.819-0.224c-0.343-0.155-0.665-0.374-0.95-0.607-0.547-0.445-1.023-1.027-1.398-1.6-0.869-1.327-1.216-2.946-1.199-4.483 0.003-0.298 0.528-3.511 0.317-3.555 0.013-0.014 0.025-0.028 0.036-0.042 0.023 0.021 0.178 0.262 0.332 0.503l0.139 0.234z"></path>
<path fill="#e7502f" style="fill: var(--color4, #e7502f)" opacity="0.25" d="M24.21 11.965c0.021-0.028 0.157-0.219 0.088-0.207 0.139-0.025-0.192 0.211 0.155 0.066-0.165 0.142-0.070 0.327-0.067 0.519 0.004 0.311-0.053 0.62-0.117 0.924-0.101 0.481-0.252 0.949-0.471 1.397-0.477 0.976-1.287 1.915-2.248 2.524-0.475 0.301-0.94 0.404-1.481 0.542-0.342 0.088-0.369 0.249-0.551 0.553-0.378 0.632-0.749 1.262-1.082 1.916-0.398 0.78-0.784 1.562-1.149 2.356-1.228 2.675-2.227 5.447-2.751 8.316-0.013-1.69 0.415-3.432 0.954-5.043 0.393-1.174 0.904-2.306 1.449-3.426 0.132-0.272 0.332-0.62 0.388-0.92 0.039-0.21-0.081-0.412-0.136-0.633-0.215-0.861-0.199-1.826-0.011-2.692 0.208-0.955 0.808-1.398 1.824-1.533 0.371-0.049 0.844-0.031 1.184-0.176 0.371-0.158 0.524-0.676 0.735-1.009 0.567-0.895 1.24-1.752 2.013-2.506 0.209-0.203 0.434-0.393 0.671-0.567l0.018-0.012c0.154-0.112 0.48-0.251 0.584-0.39z"></path>
<path fill="#f1f447" style="fill: var(--color2, #f1f447)" opacity="0.25" d="M12.531 29.354c-0.026-0.162 0.111-0.308 0.29-0.308h3.605c0.179 0 0.316 0.146 0.29 0.308l-0.279 1.728c-0.085 0.527-0.579 0.917-1.161 0.917h-1.305c-0.582 0-1.076-0.39-1.161-0.917l-0.279-1.728z"></path>
<path fill="#f58b3d" style="fill: var(--color1, #f58b3d)" d="M9.571 29.93c0 1.143 0.099 2.070 1.422 2.070s1.422-0.927 1.422-2.070z"></path>
<path fill="#f58b3d" style="fill: var(--color1, #f58b3d)" d="M11.387 29.217c-0.049 0.077-0.092 0.155-0.13 0.234-0-0.011-0-0.025-0-0.039 0-0.161 0.013-0.32 0.038-0.474l-0.002 0.017c0.046-0.286 0.117-0.571 0.183-0.855 0.048-0.204 0.045-0.571 0.225-0.734 0.050-0.035 0.061 0.034 0.061 0.064 0.001 0.006 0-0.122-0.048-0.1-0.286 0.135-0.379 0.56-0.47 0.772-0.134 0.31-0.247 0.628-0.294 0.951-0.011 0.072-0.018 0.157-0.020 0.243l-0 0.002c-0.010-0.022-0.019-0.044-0.029-0.065-0.185-0.389-0.407-0.724-0.67-1.023l0.004 0.005c-0.068-0.078-0.928-0.852-0.995-0.734 0.007 0.017 0.021 0.032 0.042 0.043 0.001 0.001 0.001 0 0.001-0.001 0.051 0.075 0.194 0.19 0.239 0.255 0.112 0.164 0.2 0.339 0.289 0.51 0.117 0.21 0.294 0.569 0.463 0.933l0.067 0.161c0.039 0.085 0.080 0.17 0.122 0.255-0.431-0.569-1.006-1.085-1.797-1.38 0.27 0.126 0.447 0.362 0.63 0.544 0.22 0.219 0.452 0.431 0.672 0.649 0.26 0.258 0.566 0.529 0.816 0.814 0.242 0.466 0.478 0.932 0.623 1.421-0.060-0.169-0.005-0.403-0.015-0.58-0.010-0.157-0.028-0.302-0.054-0.444l0.003 0.022c0.031 0.063 0.057 0.126 0.069 0.185-0.016-0.151-0.029-0.252-0.044-0.352l0.007 0.058c0.035-0.091 0.069-0.176 0.092-0.246 0.118-0.359 0.258-0.712 0.448-1.057 0.204-0.364 0.403-0.67 0.618-0.963l-0.018 0.026c0.103-0.142 0.207-0.284 0.311-0.425 0.068-0.093 0.132-0.241 0.227-0.33-0.611 0.511-1.278 1.026-1.665 1.639zM48.436 5.894c-0.175-0.534-0.586-0.953-1.013-1.336-0.831-0.746-1.277-1.207-1.574-2.299-0.174-0.642-0.351-1.322-0.904-1.787-0.402-0.339-1.094-0.624-1.632-0.381-0.827 0.452-1.050 1.379-0.966 2.209 0.103 1.029 0.629 1.664 1.638 2.043 0.569 0.213 0.947 0.495 1.255 0.986 0.247 0.392 0.391 0.884 0.701 1.24 0.464 0.532 1.044 0.768 1.76 0.68-0.67-1.128-1.453-2.267-2.398-3.217-0.088-0.096-0.61-0.461-0.505-0.624 0.116-0.179 0.651 0.494 0.647 0.49 0.274 0.288 0.528 0.595 0.778 0.904l-0.002 0.001c0.186 0.225 0.435 0.54 0.681 0.857l0.081 0.109c0.080 0.107 0.177 0.244 0.27 0.383l0.024 0.038c0.138 0.21 0.358 0.806 0.584 0.936 0.048 0.028 0.093 0.043 0.135 0.049 0.154 0.231 0.304 0.464 0.447 0.7 0.373 0.616 0.693 1.266 0.84 1.961 0.043 0.203 0.013 0.962 0.164 1.108 0.277 0.268 0.196-0.248 0.179-0.404-0.138-1.29-0.644-2.388-1.378-3.472 0.226-0.27 0.258-0.956 0.187-1.173zM38.957 6.517c0.292-0.314 0.993-0.368 1.422-0.347 0.531 0.026 1.076 0.144 1.581 0.287 0.832 0.235 1.64 0.665 2.373 1.081 0.088 0.050 1.176 0.649 1.080 0.754s-1.163-0.607-1.401-0.729c-0.508-0.262-0.973-0.571-1.533-0.744-0.58-0.179-1.192-0.25-1.802-0.245-0.078 0.001-0.333-0.049-0.339 0.057-0.005 0.104 0.417 0.050 0.491 0.050 0.307 0.003 0.617 0.029 0.92 0.078 0.568 0.091 1.102 0.275 1.588 0.558-0.136 0.289-0.461 0.422-0.802 0.349-0.295-0.062-0.583-0.217-0.871-0.261-0.199-0.031-0.398-0.012-0.591 0.039-0.509 0.135-0.802 0.412-1.362 0.22-0.438-0.151-1.172-0.694-0.753-1.146zM37.703 1.449c-0.648-0.043-1.371 0.43-1.684 0.922-0.252 0.397-0.21 0.918-0.054 1.34 0.104 0.282 0.332 0.685 0.711 0.689 0.474 0.005 0.497-0.526 0.506-0.836 0.012-0.413 0.070-0.772 0.429-1.053 0.044-0.035 0.091-0.067 0.138-0.1 0.041-0.029 0.083-0.058 0.122-0.088 0.006-0.005 0.013-0.010 0.019-0.015 0.127-0.097 0.26-0.198 0.277-0.357 0.023-0.231-0.12-0.272-0.34-0.229-0.007 0.001-0.026 0.008-0.053 0.017-0.112 0.038-0.352 0.121-0.306 0.022 0.017-0.037 0.079-0.066 0.158-0.088 0.204-0.020 0.446-0.043 0.516-0.029 0.753 0.149 1.046 1.093 1.124 1.693 0.009 0.068 0.016 0.136 0.022 0.204h0.138c-0.010-0.16-0.022-0.32-0.052-0.479-0.111-0.594-0.458-1.466-1.219-1.563-0.028-0.004-0.131-0.004-0.256 0.002-0.057-0.029-0.124-0.048-0.194-0.052l-0.001-0z"></path>
</symbol>
<symbol id="icon-btn-hero" viewBox="0 0 32 32">
<path d="M21.535 13.314c0.018-0.115-0.060-0.223-0.175-0.241l-1.871-0.296c-0.115-0.018-0.223 0.060-0.241 0.175s0.060 0.223 0.175 0.241l1.663 0.263-0.263 1.664c-0.018 0.115 0.060 0.223 0.175 0.241s0.223-0.060 0.241-0.175l0.296-1.871zM11.913 20.381l9.538-6.93-0.247-0.341-9.538 6.93 0.248 0.341z"></path>
<path d="M26.386 17.053c0.027-0.236 0.084-0.455 0.173-0.658 0.093-0.203 0.196-0.358 0.311-0.466l0.285 0.208c-0.1 0.106-0.193 0.246-0.279 0.42-0.082 0.174-0.134 0.361-0.157 0.561-0.031 0.272-0.011 0.472 0.059 0.601 0.074 0.129 0.181 0.202 0.322 0.218 0.105 0.012 0.191-0.014 0.256-0.076 0.069-0.058 0.124-0.14 0.165-0.246 0.045-0.105 0.086-0.224 0.123-0.355s0.077-0.263 0.122-0.394c0.044-0.127 0.099-0.242 0.166-0.345 0.070-0.102 0.158-0.182 0.264-0.24 0.105-0.054 0.239-0.072 0.403-0.054 0.156 0.017 0.291 0.077 0.404 0.177s0.195 0.238 0.245 0.413c0.053 0.179 0.066 0.389 0.039 0.632-0.021 0.185-0.067 0.367-0.139 0.546-0.068 0.18-0.149 0.325-0.242 0.436l-0.291-0.203c0.101-0.117 0.178-0.246 0.231-0.387 0.056-0.141 0.093-0.283 0.109-0.428 0.029-0.257 0.005-0.453-0.072-0.586-0.074-0.129-0.179-0.202-0.317-0.217-0.109-0.012-0.198 0.011-0.267 0.069-0.069 0.062-0.128 0.145-0.177 0.25-0.045 0.109-0.086 0.227-0.123 0.355-0.037 0.132-0.079 0.261-0.126 0.388-0.044 0.131-0.1 0.248-0.166 0.35-0.063 0.107-0.148 0.187-0.253 0.242-0.102 0.058-0.231 0.079-0.387 0.061-0.167-0.019-0.307-0.082-0.419-0.19-0.109-0.104-0.189-0.249-0.238-0.434-0.046-0.181-0.054-0.397-0.026-0.647z"></path>
<path d="M28.356 21.102c-0.087 0.217-0.206 0.389-0.356 0.518-0.148 0.133-0.325 0.212-0.531 0.236-0.208 0.027-0.44-0.011-0.698-0.114l-1.55-0.62 0.145-0.36 1.515 0.606c0.281 0.112 0.522 0.126 0.721 0.041 0.202-0.081 0.353-0.248 0.456-0.502 0.076-0.19 0.104-0.371 0.083-0.544-0.019-0.169-0.085-0.321-0.2-0.457-0.112-0.131-0.27-0.238-0.473-0.319l-1.403-0.561 0.145-0.361 3.771 1.508-0.145 0.361-1.835-0.734 0.166-0.016c0.159 0.162 0.255 0.358 0.289 0.587 0.037 0.231 0.004 0.475-0.1 0.732z"></path>
<path d="M24.198 22.446c0.175-0.215 0.382-0.369 0.619-0.463 0.238-0.089 0.482-0.114 0.733-0.075 0.254 0.041 0.491 0.152 0.712 0.331 0.224 0.182 0.38 0.391 0.469 0.628s0.113 0.479 0.070 0.727c-0.042 0.248-0.152 0.48-0.33 0.698-0.18 0.22-0.388 0.376-0.622 0.468-0.237 0.094-0.48 0.12-0.728 0.078-0.251-0.039-0.488-0.15-0.712-0.331-0.221-0.179-0.377-0.389-0.469-0.628-0.091-0.234-0.116-0.478-0.075-0.73 0.044-0.251 0.156-0.485 0.334-0.702zM24.466 22.663c-0.132 0.161-0.213 0.332-0.244 0.514-0.028 0.184-0.006 0.364 0.067 0.541 0.073 0.182 0.196 0.342 0.369 0.483 0.176 0.143 0.359 0.23 0.549 0.262 0.188 0.035 0.368 0.019 0.541-0.047 0.175-0.064 0.328-0.176 0.457-0.334s0.208-0.329 0.236-0.514c0.031-0.182 0.011-0.362-0.059-0.542s-0.193-0.34-0.369-0.483c-0.173-0.14-0.356-0.228-0.549-0.262-0.19-0.032-0.373-0.016-0.548 0.048-0.172 0.067-0.322 0.178-0.449 0.333z"></path>
<path d="M21.663 24.742c0.207-0.137 0.425-0.215 0.655-0.232 0.232-0.014 0.458 0.035 0.678 0.147 0.219 0.117 0.416 0.306 0.591 0.567s0.273 0.513 0.296 0.756c0.025 0.247-0.015 0.473-0.119 0.678s-0.261 0.378-0.471 0.517c-0.228 0.152-0.466 0.236-0.714 0.252-0.249 0.021-0.488-0.026-0.715-0.142-0.225-0.113-0.418-0.29-0.578-0.529-0.162-0.243-0.253-0.489-0.271-0.74s0.029-0.488 0.142-0.713c0.11-0.222 0.279-0.409 0.507-0.561zM22.323 23.060l2.19 3.27-0.31 0.206-0.481-0.719-0.288-0.499-0.368-0.452-1.066-1.592 0.324-0.215zM21.878 25.013c-0.17 0.113-0.297 0.252-0.38 0.417-0.081 0.168-0.114 0.348-0.1 0.54 0.016 0.195 0.087 0.385 0.21 0.57s0.272 0.321 0.444 0.408c0.172 0.087 0.352 0.125 0.538 0.115s0.365-0.072 0.535-0.185c0.17-0.113 0.297-0.255 0.381-0.424 0.081-0.168 0.114-0.348 0.1-0.54-0.017-0.19-0.088-0.377-0.212-0.562s-0.271-0.323-0.443-0.415c-0.172-0.087-0.352-0.125-0.538-0.115-0.188 0.015-0.366 0.079-0.536 0.193z"></path>
<path d="M17.938 29.188c-0.231 0.036-0.44 0.022-0.627-0.041-0.19-0.059-0.348-0.171-0.473-0.337-0.129-0.165-0.215-0.384-0.258-0.658l-0.257-1.65 0.384-0.059 0.251 1.612c0.047 0.299 0.157 0.513 0.332 0.641 0.172 0.132 0.393 0.177 0.664 0.136 0.202-0.031 0.372-0.1 0.511-0.206 0.136-0.102 0.233-0.237 0.291-0.405 0.056-0.164 0.067-0.354 0.033-0.57l-0.233-1.493 0.384-0.059 0.442 2.839-0.368 0.057-0.121-0.779 0.082 0.137c-0.058 0.22-0.177 0.402-0.358 0.548-0.18 0.15-0.407 0.246-0.681 0.288z"></path>
<path d="M14.62 26.308c0.274 0.040 0.513 0.138 0.715 0.293 0.198 0.158 0.344 0.355 0.438 0.59 0.094 0.239 0.12 0.499 0.078 0.78-0.042 0.285-0.142 0.527-0.301 0.725s-0.355 0.342-0.59 0.433c-0.235 0.091-0.491 0.116-0.769 0.075-0.282-0.041-0.522-0.139-0.72-0.294-0.202-0.155-0.348-0.35-0.439-0.585-0.094-0.235-0.12-0.495-0.078-0.78 0.042-0.282 0.142-0.523 0.301-0.725 0.155-0.199 0.352-0.345 0.591-0.439 0.238-0.090 0.497-0.115 0.775-0.074zM14.57 26.649c-0.206-0.030-0.395-0.012-0.567 0.055-0.173 0.071-0.316 0.182-0.431 0.335-0.119 0.156-0.195 0.344-0.227 0.564-0.033 0.224-0.015 0.426 0.054 0.605 0.066 0.179 0.171 0.326 0.317 0.439 0.145 0.117 0.319 0.191 0.521 0.22s0.39 0.009 0.562-0.061c0.172-0.067 0.318-0.177 0.436-0.329s0.194-0.34 0.227-0.564c0.033-0.22 0.014-0.422-0.054-0.605-0.069-0.18-0.176-0.328-0.321-0.446-0.146-0.114-0.318-0.185-0.516-0.214z"></path>
<path d="M12.224 25.818l-0.419 3.040-0.327-0.177 0.407-2.81 0.149 0.081-2.164 1.86-0.294-0.159 0.392-2.818 0.149 0.081-2.155 1.866-0.313-0.169 2.331-2.007 0.323 0.174-0.35 2.66-0.101-0.055 2.050-1.742 0.323 0.174z"></path>
<path d="M7.625 22.196c0.139 0.192 0.244 0.393 0.315 0.603 0.068 0.212 0.096 0.396 0.083 0.554l-0.352 0.037c0.003-0.146-0.023-0.312-0.077-0.498-0.057-0.184-0.144-0.357-0.262-0.52-0.16-0.222-0.31-0.357-0.449-0.405-0.142-0.046-0.27-0.028-0.386 0.055-0.086 0.062-0.132 0.138-0.139 0.228-0.012 0.089 0.003 0.187 0.043 0.293 0.038 0.108 0.087 0.223 0.148 0.345s0.12 0.246 0.175 0.373c0.053 0.123 0.090 0.246 0.11 0.366 0.017 0.123 0.006 0.241-0.034 0.355-0.041 0.111-0.129 0.214-0.262 0.31-0.127 0.092-0.267 0.138-0.419 0.14s-0.306-0.045-0.46-0.141c-0.16-0.096-0.311-0.243-0.455-0.441-0.109-0.151-0.198-0.316-0.265-0.497-0.071-0.178-0.109-0.34-0.114-0.484l0.353-0.045c0.004 0.155 0.034 0.302 0.090 0.441 0.053 0.142 0.122 0.272 0.208 0.39 0.152 0.21 0.301 0.338 0.448 0.386 0.142 0.046 0.269 0.029 0.381-0.052 0.089-0.064 0.139-0.141 0.151-0.23 0.010-0.092-0.003-0.194-0.037-0.304-0.040-0.111-0.089-0.226-0.148-0.345-0.061-0.122-0.117-0.246-0.168-0.372-0.056-0.126-0.093-0.25-0.113-0.371-0.025-0.121-0.017-0.238 0.025-0.348 0.036-0.112 0.118-0.213 0.246-0.305 0.136-0.098 0.283-0.145 0.439-0.14 0.151 0.004 0.307 0.058 0.469 0.162 0.156 0.104 0.308 0.257 0.456 0.461z"></path>
<path d="M3.437 20.529c-0.081-0.219-0.11-0.426-0.085-0.622 0.020-0.198 0.098-0.375 0.235-0.53 0.135-0.159 0.333-0.287 0.593-0.383l1.566-0.579 0.136 0.364-1.53 0.566c-0.284 0.105-0.471 0.256-0.562 0.453-0.095 0.195-0.095 0.42 0.001 0.677 0.071 0.192 0.173 0.345 0.305 0.459 0.127 0.112 0.279 0.181 0.456 0.205 0.172 0.022 0.36-0.005 0.566-0.081l1.417-0.524 0.136 0.364-3.809 1.409-0.136-0.364 1.853-0.685-0.112 0.123c-0.227-0.013-0.43-0.094-0.61-0.241-0.183-0.146-0.323-0.349-0.42-0.609z"></path>
<path d="M5.604 16.759c0.015 0.277-0.033 0.53-0.145 0.759-0.116 0.226-0.279 0.408-0.491 0.547-0.215 0.14-0.465 0.217-0.749 0.232-0.288 0.016-0.545-0.035-0.77-0.15s-0.406-0.28-0.542-0.492c-0.136-0.212-0.211-0.458-0.226-0.739-0.015-0.284 0.033-0.539 0.145-0.764 0.112-0.229 0.274-0.411 0.486-0.547 0.212-0.139 0.462-0.217 0.749-0.232 0.284-0.015 0.541 0.035 0.77 0.15 0.225 0.112 0.408 0.276 0.547 0.491 0.136 0.216 0.212 0.464 0.227 0.744zM5.259 16.778c-0.011-0.208-0.067-0.389-0.167-0.545-0.103-0.155-0.241-0.274-0.414-0.356-0.176-0.086-0.376-0.122-0.598-0.11-0.226 0.012-0.42 0.070-0.583 0.174-0.163 0.1-0.285 0.233-0.368 0.398-0.086 0.165-0.124 0.35-0.112 0.554s0.068 0.384 0.172 0.539c0.1 0.155 0.236 0.276 0.409 0.362s0.372 0.122 0.598 0.11c0.222-0.012 0.416-0.070 0.583-0.174 0.162-0.104 0.287-0.238 0.373-0.404 0.082-0.165 0.118-0.348 0.107-0.548z"></path>
<path d="M5.926 13.351c-0.061 0.241-0.17 0.445-0.329 0.612-0.162 0.166-0.362 0.282-0.601 0.346-0.241 0.060-0.514 0.052-0.818-0.024s-0.547-0.197-0.727-0.362c-0.184-0.166-0.306-0.361-0.367-0.583s-0.060-0.455 0.001-0.699c0.067-0.265 0.187-0.488 0.359-0.666 0.17-0.183 0.378-0.308 0.625-0.374 0.243-0.067 0.504-0.066 0.784 0.004 0.283 0.071 0.516 0.193 0.698 0.366s0.307 0.381 0.374 0.624c0.068 0.239 0.068 0.491 0.002 0.756zM6.568 15.040l-3.818-0.954 0.091-0.361 0.839 0.21 0.548 0.177 0.576 0.088 1.859 0.464-0.095 0.377zM5.585 13.294c0.050-0.198 0.050-0.386 0.001-0.564-0.053-0.179-0.149-0.334-0.289-0.467-0.143-0.134-0.323-0.227-0.539-0.281s-0.417-0.055-0.603-0.004-0.345 0.143-0.476 0.276c-0.131 0.133-0.222 0.298-0.272 0.496s-0.049 0.388 0.003 0.571c0.053 0.179 0.149 0.334 0.289 0.467 0.141 0.129 0.319 0.221 0.535 0.275s0.418 0.058 0.607 0.011c0.186-0.051 0.345-0.143 0.476-0.276 0.129-0.137 0.218-0.305 0.268-0.503z"></path>
<path d="M5.683 7.578c0.147-0.181 0.311-0.311 0.493-0.39 0.181-0.084 0.373-0.107 0.577-0.069 0.206 0.035 0.418 0.14 0.634 0.314l1.3 1.048-0.245 0.302-1.27-1.024c-0.236-0.19-0.462-0.274-0.678-0.251-0.216 0.018-0.411 0.133-0.583 0.345-0.129 0.159-0.209 0.324-0.24 0.496-0.032 0.167-0.013 0.332 0.056 0.495 0.069 0.159 0.188 0.306 0.359 0.444l1.176 0.948-0.245 0.302-2.237-1.803 0.234-0.289 0.614 0.495-0.153-0.046c-0.104-0.201-0.139-0.417-0.103-0.646 0.033-0.231 0.136-0.455 0.311-0.67z"></path>
<path d="M10.033 7.512c-0.23 0.154-0.473 0.242-0.727 0.263-0.253 0.016-0.494-0.031-0.723-0.141-0.231-0.113-0.426-0.288-0.585-0.524-0.161-0.239-0.25-0.485-0.267-0.737s0.032-0.491 0.144-0.716c0.112-0.225 0.285-0.415 0.519-0.572 0.236-0.159 0.48-0.247 0.731-0.267 0.254-0.021 0.494 0.024 0.72 0.137 0.229 0.11 0.424 0.285 0.585 0.524 0.159 0.236 0.248 0.482 0.267 0.737 0.019 0.251-0.027 0.491-0.141 0.721-0.115 0.227-0.29 0.419-0.523 0.575zM9.84 7.227c0.173-0.116 0.3-0.256 0.383-0.421 0.080-0.168 0.111-0.347 0.093-0.537-0.017-0.195-0.088-0.385-0.213-0.569-0.127-0.188-0.276-0.324-0.449-0.411-0.17-0.088-0.347-0.126-0.531-0.112-0.186 0.011-0.364 0.073-0.534 0.187s-0.295 0.255-0.375 0.423c-0.082 0.165-0.116 0.344-0.101 0.536s0.086 0.382 0.213 0.569c0.125 0.184 0.274 0.321 0.449 0.411 0.173 0.086 0.352 0.124 0.539 0.113 0.184-0.014 0.36-0.077 0.527-0.188z"></path>
<path d="M12.183 6.236l-1.733-2.537 0.362-0.087 1.588 2.358-0.165 0.040 0.354-2.828 0.325-0.079 1.604 2.355-0.165 0.040 0.343-2.826 0.346-0.084-0.379 3.048-0.356 0.086-1.529-2.209 0.112-0.027-0.349 2.664-0.356 0.086z"></path>
<path d="M18.017 5.834c-0.232-0.050-0.444-0.129-0.638-0.237-0.192-0.112-0.337-0.231-0.433-0.356l0.236-0.263c0.096 0.11 0.226 0.216 0.391 0.319 0.165 0.099 0.346 0.169 0.542 0.211 0.268 0.057 0.469 0.057 0.605 0.001 0.136-0.060 0.219-0.16 0.249-0.299 0.022-0.103 0.006-0.191-0.050-0.263-0.051-0.074-0.127-0.137-0.228-0.189-0.1-0.055-0.214-0.107-0.341-0.157s-0.254-0.103-0.38-0.16c-0.122-0.056-0.231-0.122-0.327-0.199-0.095-0.080-0.166-0.175-0.213-0.286-0.044-0.11-0.048-0.245-0.013-0.406 0.033-0.153 0.105-0.282 0.217-0.385s0.257-0.171 0.436-0.203c0.183-0.035 0.394-0.028 0.633 0.023 0.182 0.039 0.359 0.103 0.53 0.192 0.172 0.085 0.308 0.18 0.409 0.283l-0.232 0.27c-0.106-0.112-0.227-0.202-0.362-0.268-0.134-0.070-0.273-0.12-0.416-0.15-0.253-0.054-0.45-0.050-0.591 0.014-0.136 0.060-0.219 0.158-0.248 0.294-0.023 0.107-0.009 0.198 0.042 0.272 0.055 0.075 0.132 0.142 0.231 0.201 0.104 0.056 0.217 0.108 0.341 0.157 0.127 0.050 0.252 0.104 0.373 0.164 0.126 0.057 0.237 0.123 0.332 0.2 0.1 0.074 0.172 0.165 0.215 0.276 0.048 0.107 0.055 0.238 0.022 0.391-0.035 0.164-0.112 0.297-0.231 0.398-0.115 0.099-0.267 0.163-0.456 0.194-0.185 0.028-0.401 0.015-0.647-0.038z"></path>
<path d="M22.287 4.274c0.207 0.108 0.367 0.243 0.48 0.405 0.118 0.16 0.178 0.344 0.181 0.551 0.006 0.209-0.056 0.436-0.185 0.682l-0.776 1.478-0.345-0.18 0.758-1.444c0.141-0.268 0.179-0.506 0.114-0.712-0.060-0.208-0.211-0.375-0.454-0.502-0.181-0.094-0.359-0.14-0.534-0.136-0.17 0.002-0.329 0.053-0.476 0.153-0.142 0.099-0.265 0.245-0.366 0.439l-0.702 1.338-0.345-0.18 1.887-3.596 0.345 0.18-0.918 1.75 0.001-0.166c0.178-0.142 0.382-0.218 0.615-0.229 0.234-0.014 0.474 0.043 0.72 0.172z"></path>
<path d="M23.225 8.529c-0.197-0.195-0.331-0.415-0.402-0.659-0.065-0.244-0.066-0.489-0.003-0.734 0.066-0.248 0.2-0.472 0.401-0.674 0.203-0.204 0.428-0.339 0.673-0.404s0.49-0.065 0.733 0.001c0.243 0.066 0.465 0.198 0.664 0.396 0.202 0.2 0.338 0.421 0.406 0.663 0.071 0.245 0.073 0.488 0.007 0.73-0.064 0.245-0.197 0.47-0.401 0.674-0.201 0.202-0.425 0.336-0.673 0.404-0.243 0.068-0.488 0.069-0.737 0.003-0.246-0.069-0.469-0.202-0.668-0.399zM23.469 8.284c0.148 0.146 0.311 0.244 0.49 0.292 0.181 0.046 0.363 0.041 0.547-0.014 0.188-0.055 0.361-0.161 0.518-0.319 0.16-0.16 0.265-0.333 0.316-0.519 0.054-0.183 0.056-0.363 0.006-0.541-0.047-0.18-0.143-0.342-0.289-0.486s-0.308-0.238-0.489-0.284c-0.179-0.048-0.361-0.046-0.547 0.006s-0.359 0.158-0.518 0.319c-0.157 0.158-0.262 0.331-0.316 0.519-0.051 0.186-0.053 0.369-0.006 0.549 0.050 0.178 0.146 0.337 0.289 0.478z"></path>
<path d="M25.257 11.22c-0.118-0.218-0.174-0.443-0.17-0.673 0.008-0.232 0.078-0.452 0.211-0.659 0.138-0.206 0.345-0.383 0.621-0.531s0.538-0.222 0.783-0.22c0.248-0.001 0.47 0.061 0.665 0.184s0.352 0.296 0.472 0.517c0.13 0.241 0.191 0.485 0.184 0.734-0.002 0.25-0.072 0.482-0.209 0.696-0.134 0.213-0.328 0.387-0.582 0.523-0.257 0.138-0.512 0.204-0.764 0.198s-0.484-0.076-0.698-0.21c-0.212-0.131-0.382-0.317-0.512-0.558zM23.641 10.403l3.469-1.858 0.177 0.328-0.762 0.408-0.525 0.238-0.486 0.322-1.689 0.904-0.184-0.342zM25.548 11.034c0.097 0.18 0.224 0.319 0.38 0.417 0.16 0.097 0.336 0.147 0.529 0.151 0.196 0.003 0.392-0.049 0.589-0.154s0.346-0.239 0.449-0.402c0.103-0.163 0.158-0.337 0.166-0.523s-0.037-0.369-0.134-0.549c-0.097-0.18-0.226-0.32-0.388-0.419-0.16-0.097-0.336-0.147-0.529-0.151-0.191-0.001-0.385 0.051-0.581 0.156s-0.348 0.238-0.456 0.4c-0.103 0.163-0.158 0.337-0.166 0.523-0.003 0.188 0.045 0.371 0.142 0.551z"></path>
</symbol>
<symbol id="icon-Logo" viewBox="0 0 32 32">
<path d="M12.711 27.852v-3.848l-0.172-0.721v-6.561c0-1.397-0.412-2.473-1.237-3.229-0.802-0.779-2.015-1.168-3.641-1.168-1.076 0-2.13 0.183-3.16 0.55-1.031 0.344-1.901 0.813-2.611 1.409l-1.374-2.473c0.939-0.756 2.061-1.328 3.367-1.718 1.328-0.412 2.714-0.618 4.157-0.618 2.496 0 4.42 0.607 5.771 1.821s2.027 3.069 2.027 5.565v10.993h-3.126zM6.733 28.058c-1.351 0-2.542-0.229-3.573-0.687-1.008-0.458-1.786-1.088-2.336-1.889-0.55-0.824-0.824-1.752-0.824-2.783 0-0.985 0.229-1.878 0.687-2.68 0.481-0.802 1.248-1.443 2.302-1.924 1.076-0.481 2.519-0.721 4.329-0.721h5.771v2.37h-5.634c-1.649 0-2.76 0.275-3.332 0.825s-0.859 1.214-0.859 1.992c0 0.893 0.355 1.615 1.065 2.164 0.71 0.527 1.695 0.79 2.954 0.79 1.237 0 2.313-0.275 3.229-0.825 0.939-0.55 1.615-1.351 2.027-2.405l0.653 2.267c-0.435 1.076-1.202 1.935-2.302 2.576-1.099 0.618-2.485 0.927-4.157 0.927z"></path>
<path d="M23.257 28.058c-1.947 0-3.664-0.401-5.153-1.202-1.466-0.802-2.611-1.901-3.435-3.298-0.802-1.397-1.202-3-1.202-4.809s0.389-3.412 1.168-4.809c0.802-1.397 1.889-2.485 3.264-3.264 1.397-0.802 2.966-1.202 4.706-1.202 1.763 0 3.321 0.389 4.672 1.168s2.405 1.878 3.16 3.298c0.779 1.397 1.168 3.035 1.168 4.913 0 0.137-0.011 0.298-0.034 0.481 0 0.183-0.011 0.355-0.034 0.515h-15.493v-2.37h13.776l-1.34 0.824c0.023-1.168-0.218-2.21-0.721-3.126s-1.202-1.626-2.096-2.13c-0.87-0.527-1.889-0.79-3.057-0.79-1.145 0-2.164 0.263-3.057 0.79-0.893 0.504-1.592 1.225-2.096 2.164-0.504 0.916-0.756 1.97-0.756 3.16v0.55c0 1.214 0.275 2.302 0.825 3.264 0.573 0.939 1.363 1.672 2.37 2.199s2.164 0.79 3.47 0.79c1.076 0 2.050-0.183 2.92-0.55 0.893-0.366 1.672-0.916 2.336-1.649l1.821 2.13c-0.825 0.962-1.855 1.695-3.092 2.199-1.214 0.504-2.576 0.756-4.088 0.756z"></path>
<path d="M29.2 6.055h-12.024v-2.576h12.024v2.576z"></path>
</symbol>
<symbol id="chevron-up" viewBox="0 0 32 32">
<path d="M15.292 9.292c0.181-0.181 0.431-0.294 0.708-0.294s0.527 0.112 0.708 0.294l12 12c0.181 0.181 0.293 0.431 0.293 0.708 0 0.553-0.448 1.001-1.001 1.001-0.276 0-0.527-0.112-0.708-0.293v0l-11.292-11.294-11.292 11.294c-0.181 0.181-0.431 0.293-0.708 0.293-0.553 0-1.001-0.448-1.001-1.001 0-0.276 0.112-0.527 0.293-0.708l12-12z"></path>
</symbol>
<symbol id="icon-arrow-right" viewBox="0 0 49 32">
<path fill="none" stroke-linejoin="miter" stroke-linecap="butt" stroke-miterlimit="4" stroke-width="0.5" d="M31.75 16c0 8.698-7.052 15.75-15.75 15.75s-15.75-7.052-15.75-15.75c0-8.698 7.051-15.75 15.75-15.75s15.75 7.051 15.75 15.75z"></path>
<path d="M48.177 16.177c0.098-0.098 0.098-0.256 0-0.354l-1.591-1.591c-0.098-0.098-0.256-0.098-0.354 0s-0.098 0.256 0 0.354l1.414 1.414-1.414 1.414c-0.098 0.098-0.098 0.256 0 0.354s0.256 0.098 0.354 0l1.591-1.591zM15 16.25h33v-0.5h-33v0.5z"></path>
</symbol>
<symbol id="icon-arrow-left" viewBox="0 0 49 32">
<path fill="none" stroke-linejoin="miter" stroke-linecap="butt" stroke-miterlimit="4" stroke-width="0.5" d="M48.25 16c0 8.698-7.051 15.75-15.75 15.75s-15.75-7.052-15.75-15.75c0-8.698 7.052-15.75 15.75-15.75s15.75 7.051 15.75 15.75z"></path>
<path d="M0.323 15.823c-0.098 0.098-0.098 0.256 0 0.354l1.591 1.591c0.098 0.098 0.256 0.098 0.354 0s0.098-0.256 0-0.354l-1.414-1.414 1.414-1.414c0.098-0.098 0.098-0.256 0-0.354s-0.256-0.098-0.354 0l-1.591 1.591zM0.5 16.25h33v-0.5h-33v0.5z"></path>
</symbol>
</defs>
</svg>
