<svg xmlns="http://www.w3.org/2000/svg" width="68" height="76" fill="none">
  <path fill="#000" d="M47.146 31.62a.5.5 0 0 0-.415-.572l-4.445-.704a.5.5 0 0 0-.156.988l3.95.626-.625 3.95a.5.5 0 0 0 .987.157l.704-4.445ZM24.294 48.404l22.652-16.458-.587-.809-22.653 16.459.588.809ZM58.666 40.5c.063-.56.2-1.08.411-1.562.22-.482.467-.85.74-1.108l.677.494a4.078 4.078 0 0 0-.662.999 4.214 4.214 0 0 0-.372 1.332c-.073.646-.026 1.122.14 1.428.174.308.43.48.765.518.25.028.453-.032.61-.18.163-.14.294-.334.392-.585.107-.25.204-.53.292-.843.087-.313.183-.625.288-.936a3.71 3.71 0 0 1 .393-.82c.167-.243.376-.433.627-.57.25-.13.569-.172.956-.129.37.042.69.182.96.422.27.239.464.566.583.98.127.424.158.925.093 1.502-.05.44-.16.872-.33 1.297-.16.427-.352.772-.574 1.035l-.691-.483c.24-.278.423-.585.548-.92.134-.334.22-.673.259-1.017.069-.612.012-1.076-.17-1.393-.175-.307-.426-.48-.754-.516-.258-.029-.469.026-.633.165a1.794 1.794 0 0 0-.42.594c-.107.258-.205.54-.291.844-.088.313-.188.62-.3.921a3.684 3.684 0 0 1-.395.832 1.48 1.48 0 0 1-.6.574c-.243.139-.55.187-.92.146a1.662 1.662 0 0 1-.996-.452c-.26-.247-.448-.59-.564-1.03-.108-.432-.129-.944-.062-1.538ZM63.346 50.117c-.207.514-.488.924-.845 1.23a2.215 2.215 0 0 1-1.262.56c-.493.063-1.045-.027-1.657-.271l-3.681-1.472.344-.856 3.597 1.438c.668.267 1.239.299 1.713.096.479-.19.84-.588 1.082-1.191.181-.45.247-.881.198-1.293a2 2 0 0 0-.474-1.085c-.267-.313-.642-.565-1.125-.758l-3.331-1.332.344-.856 8.957 3.58-.345.857-4.357-1.742.394-.039c.377.385.606.85.686 1.395.087.548.008 1.128-.238 1.739ZM53.471 53.309c.417-.51.907-.877 1.47-1.1a3.392 3.392 0 0 1 1.74-.178c.603.098 1.166.36 1.691.786.532.432.903.93 1.115 1.492.212.562.267 1.138.167 1.726-.1.589-.361 1.141-.784 1.658-.427.523-.92.894-1.478 1.11a3.174 3.174 0 0 1-1.73.187c-.596-.093-1.16-.356-1.691-.787-.525-.426-.896-.924-1.115-1.492a3.235 3.235 0 0 1-.177-1.734c.106-.595.37-1.151.792-1.668Zm.636.516c-.313.383-.506.79-.579 1.222a2.38 2.38 0 0 0 .16 1.284c.173.431.465.814.875 1.147.417.339.852.547 1.304.623a2.31 2.31 0 0 0 1.284-.112 2.512 2.512 0 0 0 1.085-.794 2.5 2.5 0 0 0 .56-1.22c.074-.431.027-.86-.14-1.286-.167-.426-.459-.808-.876-1.147-.41-.333-.845-.54-1.304-.623a2.497 2.497 0 0 0-1.302.114c-.41.16-.766.423-1.067.792ZM47.45 58.762c.491-.327 1.01-.51 1.556-.551a3.08 3.08 0 0 1 1.61.349c.521.278.989.727 1.403 1.346.415.62.65 1.218.703 1.797a2.856 2.856 0 0 1-.283 1.61c-.248.487-.62.896-1.118 1.227-.541.36-1.106.56-1.696.598a3.083 3.083 0 0 1-1.697-.338c-.535-.269-.993-.688-1.374-1.257-.386-.576-.6-1.161-.645-1.757a3.169 3.169 0 0 1 .337-1.692c.262-.528.663-.972 1.205-1.332Zm1.566-3.993 5.202 7.766-.736.49-1.143-1.707-.684-1.185-.875-1.073-2.532-3.78.768-.511Zm-1.055 4.637a2.579 2.579 0 0 0-.902.99 2.473 2.473 0 0 0-.237 1.282c.04.464.206.915.5 1.354.294.44.646.762 1.056.969.41.206.835.297 1.278.273.443-.024.867-.17 1.27-.44a2.57 2.57 0 0 0 .906-1.008c.192-.398.27-.825.236-1.281-.041-.452-.209-.897-.503-1.336-.294-.44-.645-.768-1.052-.987a2.495 2.495 0 0 0-1.279-.273c-.445.036-.87.188-1.273.457ZM38.604 69.322c-.548.085-1.045.052-1.49-.098a2.21 2.21 0 0 1-1.124-.8c-.306-.39-.51-.912-.611-1.562l-.61-3.918.911-.141.597 3.828c.11.71.373 1.218.79 1.522.408.313.933.42 1.576.321.48-.074.883-.237 1.213-.49.321-.243.552-.563.692-.962.132-.389.158-.84.078-1.354l-.552-3.545.912-.141 1.05 6.743-.873.136-.288-1.85.195.325a2.445 2.445 0 0 1-.85 1.302c-.426.355-.965.584-1.616.684ZM30.722 62.48a3.593 3.593 0 0 1 1.698.697c.47.376.817.843 1.041 1.401.223.567.285 1.185.186 1.854-.1.677-.338 1.251-.715 1.721-.376.47-.843.814-1.4 1.03-.558.216-1.167.275-1.827.178-.669-.098-1.239-.33-1.71-.698a3.154 3.154 0 0 1-1.043-1.388c-.225-.559-.286-1.177-.186-1.854.099-.669.337-1.243.714-1.722a3.256 3.256 0 0 1 1.403-1.042c.566-.214 1.18-.273 1.84-.176Zm-.12.811a2.613 2.613 0 0 0-1.346.13c-.41.168-.752.433-1.024.796-.283.37-.463.817-.54 1.34-.079.532-.036 1.01.129 1.438.156.426.407.774.752 1.043.345.279.757.453 1.237.524.48.07.925.022 1.336-.145.409-.16.754-.42 1.035-.781.281-.362.461-.808.54-1.34.077-.523.034-1.002-.13-1.438a2.48 2.48 0 0 0-.763-1.058 2.557 2.557 0 0 0-1.225-.509ZM25.031 61.317l-.996 7.22-.777-.42.965-6.675.355.191-5.14 4.42-.698-.378.931-6.692.355.191-5.118 4.431-.743-.402 5.536-4.766.767.414-.832 6.319-.24-.13 4.869-4.137.766.414ZM14.11 52.716c.33.456.579.934.747 1.432.161.503.227.942.198 1.315l-.835.088a4.059 4.059 0 0 0-.182-1.182 4.205 4.205 0 0 0-.621-1.235c-.381-.526-.737-.847-1.066-.962-.337-.11-.643-.067-.917.13-.204.148-.314.328-.33.542a1.42 1.42 0 0 0 .102.696c.09.256.207.529.353.819.146.29.285.585.416.885.127.294.214.584.261.87.04.292.013.572-.08.842-.099.263-.306.509-.623.737a1.698 1.698 0 0 1-.995.332c-.361.003-.726-.108-1.093-.335-.38-.229-.74-.578-1.08-1.049a4.984 4.984 0 0 1-.63-1.18c-.168-.424-.259-.807-.272-1.15l.838-.106c.01.367.08.716.213 1.047.126.337.29.645.494.926.361.499.716.804 1.065.916.336.11.638.07.905-.123.212-.152.331-.334.36-.547.022-.22-.007-.46-.09-.72a7.618 7.618 0 0 0-.352-.82 11.45 11.45 0 0 1-.398-.882 3.665 3.665 0 0 1-.269-.88c-.059-.289-.039-.565.06-.828.086-.265.28-.506.583-.724a1.667 1.667 0 0 1 1.042-.333c.36.008.73.136 1.113.384.37.246.731.61 1.082 1.095ZM4.162 48.756c-.193-.52-.26-1.012-.203-1.477.047-.47.233-.89.558-1.26.322-.377.792-.68 1.41-.909l3.718-1.375.322.865-3.633 1.343c-.675.25-1.12.608-1.334 1.076-.225.462-.225.998.002 1.607.17.455.41.818.725 1.09.302.267.663.43 1.082.487.408.052.856-.012 1.344-.192l3.365-1.244.322.865-9.047 3.345-.322-.865 4.401-1.628-.265.293a2.456 2.456 0 0 1-1.448-.574c-.435-.347-.767-.83-.997-1.447ZM9.309 39.804a3.594 3.594 0 0 1-.345 1.802 3.374 3.374 0 0 1-1.166 1.3c-.512.33-1.105.515-1.78.551-.684.037-1.293-.082-1.829-.357a3.28 3.28 0 0 1-1.287-1.167c-.322-.504-.502-1.089-.538-1.755-.036-.675.078-1.28.344-1.815.266-.544.65-.977 1.154-1.3.502-.33 1.096-.514 1.78-.55.674-.037 1.284.082 1.828.356.536.267.969.656 1.3 1.167.323.512.503 1.101.539 1.768Zm-.818.044a2.612 2.612 0 0 0-.395-1.294 2.392 2.392 0 0 0-.984-.845c-.419-.203-.892-.29-1.42-.262-.536.029-.998.166-1.384.413a2.299 2.299 0 0 0-.873.945 2.506 2.506 0 0 0-.267 1.317c.027.484.163.91.408 1.28.237.369.56.655.971.858.41.204.884.291 1.42.262.528-.028.99-.166 1.384-.413.386-.246.681-.566.885-.959.196-.392.281-.826.255-1.302ZM10.074 31.709a3.203 3.203 0 0 1-.78 1.453c-.386.395-.862.67-1.428.823-.572.142-1.22.123-1.943-.057-.723-.18-1.298-.468-1.727-.86a2.862 2.862 0 0 1-.872-1.384 3.222 3.222 0 0 1 .003-1.661c.158-.63.443-1.158.853-1.582a3.077 3.077 0 0 1 1.484-.89c.576-.159 1.197-.156 1.86.01.674.168 1.226.458 1.659.87.432.412.728.906.887 1.481.161.568.163 1.167.004 1.797Zm1.524 4.012L2.53 33.455l.216-.857 1.993.498 1.302.419 1.368.208 4.415 1.103-.226.895Zm-2.334-4.148c.118-.47.119-.917.001-1.34a2.48 2.48 0 0 0-.686-1.109c-.34-.317-.766-.54-1.28-.668-.512-.128-.99-.131-1.431-.01a2.49 2.49 0 0 0-1.13.656 2.51 2.51 0 0 0-.645 1.18c-.119.47-.116.922.007 1.355.126.424.355.794.686 1.109.334.307.758.524 1.27.652.514.128.994.137 1.442.025a2.49 2.49 0 0 0 1.13-.655 2.66 2.66 0 0 0 .636-1.195ZM9.497 17.998c.35-.43.74-.74 1.17-.926.43-.2.887-.254 1.372-.164.49.083.992.332 1.505.745l3.087 2.488-.582.717-3.016-2.431c-.56-.451-1.096-.65-1.61-.596-.513.043-.975.316-1.384.82-.306.378-.496.77-.57 1.178-.076.395-.031.787.134 1.176.163.377.447.728.852 1.054l2.793 2.252-.581.717-5.314-4.283.557-.687 1.457 1.175-.363-.11a2.437 2.437 0 0 1-.246-1.533c.078-.55.324-1.08.74-1.592ZM19.828 17.842a3.603 3.603 0 0 1-1.726.626 3.392 3.392 0 0 1-1.717-.336c-.548-.27-1.01-.684-1.389-1.244-.383-.568-.594-1.151-.633-1.751-.04-.6.075-1.167.342-1.701s.677-.987 1.232-1.359c.561-.376 1.14-.587 1.737-.633a3.173 3.173 0 0 1 1.71.325c.542.262 1.005.677 1.388 1.245.378.56.59 1.144.633 1.75a3.237 3.237 0 0 1-.334 1.712c-.274.539-.689.994-1.243 1.366Zm-.458-.679c.41-.275.713-.609.909-1 .19-.4.264-.825.22-1.276-.04-.463-.208-.914-.504-1.352-.3-.446-.656-.77-1.066-.976a2.31 2.31 0 0 0-1.262-.265 2.512 2.512 0 0 0-1.269.444c-.403.27-.7.605-.89 1.005a2.38 2.38 0 0 0-.24 1.271c.037.456.205.907.505 1.352.296.439.652.764 1.067.976.41.205.837.294 1.28.269a2.565 2.565 0 0 0 1.25-.448ZM24.934 14.81l-4.117-6.027.86-.207 3.772 5.6-.392.096.84-6.717.77-.187 3.81 5.593-.391.094.815-6.71.821-.199-.9 7.24-.847.204-3.632-5.247.265-.064-.828 6.326-.846.205ZM38.791 13.856a5.364 5.364 0 0 1-1.514-.563c-.457-.266-.8-.548-1.028-.845l.56-.625c.227.262.537.514.927.757.393.235.823.402 1.289.502.635.136 1.114.136 1.436.001.323-.143.52-.38.592-.71.052-.246.013-.454-.119-.624a1.424 1.424 0 0 0-.542-.449 6.875 6.875 0 0 0-.81-.372 18.631 18.631 0 0 1-.903-.38c-.29-.133-.55-.29-.776-.471a1.801 1.801 0 0 1-.505-.68c-.104-.261-.114-.583-.032-.964.078-.364.25-.669.516-.913.265-.245.61-.406 1.035-.484.434-.084.936-.065 1.504.056.432.093.851.244 1.258.456.408.202.732.427.972.673l-.55.64a2.996 2.996 0 0 0-.86-.636 3.906 3.906 0 0 0-.987-.358c-.602-.128-1.07-.117-1.404.033-.323.143-.52.376-.589.698-.054.254-.021.47.1.646.13.179.314.337.55.477.246.132.516.256.81.372.303.118.599.248.887.39.3.134.562.292.789.474.237.175.407.393.51.654.114.255.132.564.054.929-.084.39-.267.705-.55.946-.272.234-.633.387-1.083.46-.44.065-.952.035-1.537-.09ZM48.931 10.152c.492.256.872.576 1.14.96.28.381.424.817.43 1.31.014.495-.133 1.035-.439 1.618l-1.842 3.51-.819-.426 1.8-3.43c.335-.637.425-1.201.271-1.692-.141-.494-.5-.891-1.077-1.192-.43-.224-.853-.332-1.269-.324-.403.005-.78.126-1.13.364-.338.234-.628.581-.87 1.042l-1.667 3.177-.818-.427 4.482-8.541.818.426-2.18 4.156.001-.395a2.458 2.458 0 0 1 1.46-.544c.556-.033 1.125.103 1.71.408ZM51.16 20.256a3.587 3.587 0 0 1-.954-1.566 3.361 3.361 0 0 1-.007-1.744c.158-.588.475-1.121.952-1.6.483-.485 1.016-.805 1.599-.96a3.294 3.294 0 0 1 1.74.002c.578.157 1.103.47 1.578.94.48.475.802 1 .963 1.575.168.58.173 1.159.016 1.734-.152.582-.469 1.116-.952 1.6-.477.48-1.01.8-1.599.961a3.266 3.266 0 0 1-1.749.006c-.584-.163-1.113-.479-1.587-.948Zm.578-.58c.351.347.739.578 1.163.693.43.108.862.098 1.298-.032.447-.13.858-.383 1.23-.758.38-.38.63-.791.751-1.232a2.29 2.29 0 0 0 .014-1.285 2.501 2.501 0 0 0-.686-1.154 2.512 2.512 0 0 0-1.162-.675 2.4 2.4 0 0 0-1.298.014c-.442.124-.852.376-1.231.757-.373.375-.624.785-.751 1.233-.121.44-.126.875-.014 1.303.118.422.347.8.686 1.135ZM55.984 26.649a3.194 3.194 0 0 1-.403-1.598c.018-.55.185-1.073.5-1.566.327-.49.819-.91 1.476-1.262s1.277-.526 1.86-.524a2.88 2.88 0 0 1 1.579.437c.463.293.836.703 1.12 1.23.308.571.454 1.152.437 1.741a3.058 3.058 0 0 1-.498 1.653c-.319.505-.78.919-1.383 1.242-.611.327-1.216.484-1.814.47a3.197 3.197 0 0 1-1.657-.499c-.503-.31-.908-.752-1.217-1.324Zm-3.837-1.942 8.24-4.412.42.778-1.812.97-1.246.564-1.153.765-4.011 2.148-.438-.813Zm4.529 1.498c.23.427.531.757.903.99.38.23.798.35 1.257.36.466.006.932-.116 1.398-.366.466-.249.821-.567 1.066-.954.244-.386.376-.8.393-1.243a2.501 2.501 0 0 0-.319-1.303 2.582 2.582 0 0 0-.92-.997 2.494 2.494 0 0 0-1.258-.359c-.454-.002-.914.121-1.38.37-.466.25-.827.567-1.084.95-.244.386-.375.8-.393 1.242-.006.446.106.883.337 1.31Z"/>
</svg>
